<?xml version="1.0" encoding="UTF-8" standalone="no"?>
<!-- Created with Inkscape (http://www.inkscape.org/) -->

<svg
   xmlns:dc="http://purl.org/dc/elements/1.1/"
   xmlns:cc="http://creativecommons.org/ns#"
   xmlns:rdf="http://www.w3.org/1999/02/22-rdf-syntax-ns#"
   xmlns:svg="http://www.w3.org/2000/svg"
   xmlns="http://www.w3.org/2000/svg"
   xmlns:sodipodi="http://sodipodi.sourceforge.net/DTD/sodipodi-0.dtd"
   xmlns:inkscape="http://www.inkscape.org/namespaces/inkscape"
   version="1.1"
   id="svg10"
   xml:space="preserve"
   width="793.70667"
   height="1122.52"
   viewBox="0 0 793.70667 1122.52"
   sodipodi:docname="Femto.svg"
   inkscape:version="0.92.4 (5da689c313, 2019-01-14)"><metadata
     id="metadata16"><rdf:RDF><cc:Work
         rdf:about=""><dc:format>image/svg+xml</dc:format><dc:type
           rdf:resource="http://purl.org/dc/dcmitype/StillImage" /></cc:Work></rdf:RDF></metadata><defs
     id="defs14"><clipPath
       clipPathUnits="userSpaceOnUse"
       id="clipPath46"><path
         d="M 0,841.89 H 595.28 V 0 H 0 Z"
         id="path44"
         inkscape:connector-curvature="0" /></clipPath></defs><sodipodi:namedview
     pagecolor="#ffffff"
     bordercolor="#666666"
     borderopacity="1"
     objecttolerance="10"
     gridtolerance="10"
     guidetolerance="10"
     inkscape:pageopacity="0"
     inkscape:pageshadow="2"
     inkscape:window-width="1804"
     inkscape:window-height="1051"
     id="namedview12"
     showgrid="false"
     inkscape:zoom="0.76435162"
     inkscape:cx="396.85333"
     inkscape:cy="561.26001"
     inkscape:window-x="2391"
     inkscape:window-y="-9"
     inkscape:window-maximized="1"
     inkscape:current-layer="g18" /><g
     id="g18"
     inkscape:groupmode="layer"
     inkscape:label="Femto-logo_quadri-2012"
     transform="matrix(1.3333333,0,0,-1.3333333,0,1122.52)"><g
       id="g20"
       transform="matrix(1.9109855,0,0,1.9109855,29.8774,359.91973)"><path
         d="M 0,0 18.262,-0.014 18.277,21.75 0.015,21.762 Z"
         style="fill:#2b56a3;fill-opacity:1;fill-rule:nonzero;stroke:none"
         id="path22"
         inkscape:connector-curvature="0" /></g><g
       id="g24"
       transform="matrix(1.9109855,0,0,1.9109855,86.793619,359.91973)"><path
         d="M 0,0 18.262,-0.014 18.276,21.75 0.015,21.762 Z"
         style="fill:#99d64b;fill-opacity:1;fill-rule:nonzero;stroke:none"
         id="path26"
         inkscape:connector-curvature="0" /></g><g
       id="g28"
       transform="matrix(1.9109855,0,0,1.9109855,143.70984,359.91973)"><path
         d="M 0,0 18.262,-0.014 18.276,21.75 0.015,21.762 Z"
         style="fill:#1fa1e2;fill-opacity:1;fill-rule:nonzero;stroke:none"
         id="path30"
         inkscape:connector-curvature="0" /></g><g
       id="g32"
       transform="matrix(1.9109855,0,0,1.9109855,200.62586,359.91973)"><path
         d="M 0,0 18.261,-0.014 18.275,21.75 0.015,21.762 Z"
         style="fill:#a7a5a6;fill-opacity:1;fill-rule:nonzero;stroke:none"
         id="path34"
         inkscape:connector-curvature="0" /></g><g
       id="g36"
       transform="matrix(1.9109855,0,0,1.9109855,577.01262,482.19108)"><path
         d="m 0,0 v 8.231 h -17.089 v 15.755 h -9.397 V 8.231 h -30.097 l -1.271,-0.029 -1.18,-0.165 -1.15,-0.226 -1.048,-0.395 -1.046,-0.457 -0.95,-0.59 -0.916,-0.65 -0.811,-0.821 -0.86,-0.851 -0.68,-0.943 -0.629,-0.977 -0.453,-1.082 -0.4,-1.08 -0.256,-1.143 -0.163,-1.177 -0.034,-1.276 0.034,-1.205 0.163,-1.178 0.101,-0.55 0.155,-0.592 0.166,-0.526 0.234,-0.552 0.189,-0.491 0.264,-0.525 0.629,-0.976 0.68,-0.949 0.86,-0.919 0.811,-0.748 0.916,-0.687 0.95,-0.586 1.046,-0.493 1.048,-0.359 1.15,-0.259 1.18,-0.166 1.271,-0.066 h 11.887 l 0.788,-0.035 0.719,-0.161 0.293,-0.095 0.299,-0.164 0.491,-0.428 0.163,-0.197 0.193,-0.256 0.296,-0.623 0.066,-0.325 0.097,-0.394 0.067,-0.882 -0.03,-0.392 -0.037,-0.196 v -0.227 l -0.059,-0.163 -0.038,-0.199 -0.066,-0.358 -0.102,-0.134 -0.061,-0.161 -0.133,-0.295 -0.193,-0.26 -0.163,-0.266 -0.267,-0.157 -0.224,-0.2 -0.299,-0.13 -0.16,-0.064 -0.133,-0.096 -0.357,-0.068 -0.199,-0.032 -0.163,-0.064 -0.392,-0.032 -0.396,-0.033 h -18.631 v -0.034 h -5.103 v -8.301 h 23.734 l 0.594,0.035 0.123,0.032 h 0.5 l 1.176,0.164 0.263,0.095 0.29,0.069 0.593,0.123 1.112,0.365 0.492,0.259 0.524,0.229 0.033,0.066 0.066,0.033 0.13,0.064 0.264,0.133 0.522,0.295 0.457,0.361 0.49,0.321 0.916,0.785 0.367,0.459 0.388,0.424 0.332,0.492 0.33,0.457 0.55,0.981 0.227,0.525 0.269,0.485 0.061,0.296 0.097,0.262 0.199,0.525 0.134,0.587 0.126,0.555 0.164,1.179 v 0.485 l 0.033,0.133 0.033,0.588 -0.066,1.31 -0.164,1.206 -0.26,1.143 -0.357,1.077 -0.496,1.049 -0.55,0.943 -0.662,0.915 -0.755,0.82 -0.916,0.848 -0.947,0.687 -1.015,0.62 -0.524,0.267 -0.492,0.194 -1.112,0.39 -0.593,0.162 -0.553,0.098 -1.176,0.166 -1.217,0.033 h -11.887 l -0.456,0.033 -0.39,0.034 -0.689,0.162 -0.625,0.297 -0.258,0.193 -0.196,0.166 -0.229,0.258 -0.163,0.224 -0.167,0.297 -0.098,0.295 -0.163,0.717 -0.033,0.783 0.033,0.854 0.163,0.718 0.265,0.616 0.163,0.265 0.229,0.198 0.196,0.224 0.258,0.166 0.625,0.262 0.689,0.166 0.39,0.029 0.456,-0.029 h 30.097 v -17.485 l 0.033,-1.335 0.06,-0.656 0.13,-0.688 0.105,-0.619 0.163,-0.658 0.458,-1.238 0.231,-0.554 0.291,-0.589 0.69,-1.146 0.36,-0.523 0.424,-0.555 0.948,-1.012 0.95,-0.85 1.08,-0.753 1.081,-0.653 1.216,-0.521 1.205,-0.395 1.314,-0.291 1.338,-0.197 1.411,-0.068 H 0 v 9.38 h -12.998 l -0.525,0.067 -0.458,0.032 -0.46,0.094 -0.39,0.102 -0.39,0.165 -0.33,0.163 -0.296,0.195 -0.226,0.197 -0.265,0.29 -0.195,0.296 -0.199,0.329 -0.127,0.328 -0.135,0.391 -0.067,0.39 -0.028,0.882 V 0 Z"
         style="fill:#2b56a3;fill-opacity:1;fill-rule:evenodd;stroke:none"
         id="path38"
         inkscape:connector-curvature="0" /></g><g
       id="g40"
       transform="matrix(1.9109855,0,0,1.9109855,-259.48766,-378.16116)"><g
         id="g42"
         clip-path="url(#clipPath46)"><g
           id="g48"
           transform="translate(321.7939,428.7065)"><path
             d="m 0,0 c -5.656,0 -10.239,4.586 -10.239,10.242 0,5.656 4.583,10.242 10.239,10.242 5.655,0 10.238,-4.586 10.238,-10.242 C 10.238,4.586 5.655,0 0,0 m 0,29.921 c -10.865,0 -19.682,-8.81 -19.682,-19.677 0,-3.786 1.088,-7.309 2.941,-10.31 H -36.105 L -36.623,0 l -0.46,0.035 -0.425,0.098 -0.362,0.098 -0.391,0.162 -0.328,0.162 -0.295,0.196 -0.232,0.193 -0.259,0.295 -0.196,0.267 -0.296,0.649 -0.13,0.392 -0.066,0.394 -0.032,0.85 v 16.435 h 19.511 v 9.412 h -19.511 v 15.781 h -9.363 V 29.638 h -6.515 v -9.412 h 6.515 V 3.857 l -0.036,-0.688 0.036,-0.72 0.061,-0.65 0.132,-0.692 0.098,-0.615 0.167,-0.657 0.456,-1.239 0.231,-0.558 0.293,-0.587 0.654,-1.113 0.788,-1.041 0.95,-1.015 0.949,-0.847 1.046,-0.754 1.082,-0.653 1.18,-0.525 1.208,-0.391 1.279,-0.295 1.341,-0.197 1.438,-0.061 H 0.689 C 0.68,-9.431 0.665,-9.417 0.656,-9.408 11.221,-9.06 19.68,-0.409 19.68,10.244 19.68,21.111 10.872,29.921 0,29.921"
             style="fill:#2b56a3;fill-opacity:1;fill-rule:evenodd;stroke:none"
             id="path50"
             inkscape:connector-curvature="0" /></g><g
           id="g52"
           transform="translate(189.0093,449.1904)"><path
             d="M 0,0 C 4.072,0 7.576,-2.383 9.226,-5.82 H -9.225 C -7.572,-2.383 -4.068,0 0,0 M 60.879,9.203 C 56.873,9.203 53.245,7.57 50.614,4.932 47.984,7.57 44.358,9.203 40.353,9.203 32.318,9.203 25.802,2.64 25.802,-5.455 v -15.111 l -25.718,0.092 c -0.027,0 -0.053,-0.01 -0.084,-0.01 -0.027,0 -0.053,0.01 -0.083,0.01 h -0.058 v 0.006 c -3.87,0.053 -7.218,2.25 -8.914,5.456 h 24.334 4.29 c 0.453,3.232 0.24,6.039 -0.223,8.338 -0.283,1.537 -0.741,3.01 -1.355,4.399 -0.667,1.541 -1.255,2.379 -1.255,2.379 L 16.729,0.092 C 13.262,5.693 7.079,9.438 0,9.438 -9.339,9.438 -17.152,2.916 -19.162,-5.82 h -8.97 c 0.105,3.698 0.496,7.697 0.496,7.697 l 0.328,1.467 0.455,1.34 0.526,1.277 0.656,1.201 0.721,1.149 0.816,1.076 0.921,1.015 1.047,0.881 1.075,0.916 1.146,0.752 1.179,0.687 1.279,0.554 1.28,0.49 1.375,0.357 1.406,0.297 1.471,0.162 H 2.114 v 9.607 h -13.02 l -1.307,-0.097 -1.314,-0.104 -1.243,-0.195 -1.275,-0.195 -1.211,-0.295 -1.214,-0.292 -1.146,-0.39 -1.176,-0.396 -1.115,-0.486 -1.111,-0.491 -1.046,-0.624 -2.069,-1.272 -1.928,-1.53 -0.983,-0.787 -0.88,-0.853 -0.854,-0.848 -1.507,-1.83 -0.688,-0.977 -0.654,-0.986 -0.557,-1.077 -0.589,-1.045 -0.496,-1.109 -0.453,-1.111 -0.395,-1.211 -0.395,-1.176 -0.294,-1.241 -0.258,-1.275 -0.167,-1.335 c 0,0 -0.273,-3.733 -0.341,-7.697 h -9.849 v -9.192 h 9.834 v -14.913 h 9.428 v 14.913 h 9.087 c 2.137,-8.561 9.859,-14.913 19.072,-14.913 0.404,0 0.846,0.014 1.315,0.035 h 24.74 v 0.063 l 8.295,-0.029 v 13.026 h 10e-4 v 11.375 c 0,3.367 2.693,6.109 6.002,6.109 3.262,0 5.915,-2.672 5.988,-5.976 0,-0.043 -0.015,-0.088 -0.015,-0.133 V -16.83 h 0.017 v -13.066 l 8.555,-0.029 v 14.442 h 0.005 v 10.028 c 0,0.045 -0.012,0.09 -0.012,0.133 0.071,3.304 2.723,5.976 5.988,5.976 3.309,0 6.001,-2.742 6.001,-6.109 v -7.654 h -0.003 v -16.765 h 0.066 v -0.023 l 8.487,-0.028 v 24.47 c 0,8.095 -6.517,14.658 -14.551,14.658"
             style="fill:#2b56a3;fill-opacity:1;fill-rule:evenodd;stroke:none"
             id="path54"
             inkscape:connector-curvature="0" /></g><path
           d="m 347.542,434.667 h 15.692 v 8.561 h -15.692 z"
           style="fill:#2b56a3;fill-opacity:1;fill-rule:evenodd;stroke:none"
           id="path56"
           inkscape:connector-curvature="0" /><g
           id="g58"
           transform="translate(284.6128,374.418)"><path
             d="m 0,0 c 0,-0.167 -0.009,-0.313 -0.025,-0.436 -0.019,-0.123 -0.047,-0.221 -0.086,-0.295 -0.04,-0.076 -0.088,-0.13 -0.146,-0.165 -0.056,-0.036 -0.121,-0.053 -0.19,-0.053 h -4.799 v -14.792 c 0,-0.071 -0.019,-0.132 -0.053,-0.185 -0.036,-0.053 -0.097,-0.095 -0.185,-0.125 -0.088,-0.031 -0.204,-0.057 -0.349,-0.079 -0.146,-0.022 -0.328,-0.033 -0.548,-0.033 -0.211,0 -0.39,0.011 -0.54,0.033 -0.149,0.022 -0.268,0.048 -0.356,0.079 -0.088,0.03 -0.15,0.072 -0.184,0.125 -0.036,0.053 -0.053,0.114 -0.053,0.185 v 14.792 h -4.799 c -0.071,0 -0.134,0.017 -0.191,0.053 -0.058,0.035 -0.103,0.089 -0.139,0.165 -0.035,0.074 -0.063,0.172 -0.086,0.295 -0.021,0.123 -0.033,0.269 -0.033,0.436 0,0.167 0.012,0.313 0.033,0.441 0.023,0.127 0.051,0.231 0.086,0.31 0.036,0.079 0.081,0.137 0.139,0.172 0.057,0.035 0.12,0.053 0.191,0.053 h 11.866 c 0.069,0 0.134,-0.018 0.19,-0.053 C -0.199,0.888 -0.151,0.83 -0.111,0.751 -0.072,0.672 -0.044,0.568 -0.025,0.441 -0.009,0.313 0,0.167 0,0"
             style="fill:#1fa1e2;fill-opacity:1;fill-rule:nonzero;stroke:none"
             id="path60"
             inkscape:connector-curvature="0" /></g><g
           id="g62"
           transform="translate(296.5708,359.2695)"><path
             d="m 0,0 c 0,-0.158 -0.009,-0.296 -0.026,-0.415 -0.018,-0.118 -0.049,-0.218 -0.093,-0.297 -0.044,-0.079 -0.094,-0.136 -0.152,-0.171 -0.056,-0.035 -0.121,-0.053 -0.19,-0.053 h -8.187 c -0.203,0 -0.394,0.068 -0.574,0.205 -0.18,0.135 -0.27,0.376 -0.27,0.718 v 15.214 c 0,0.343 0.09,0.582 0.27,0.719 0.18,0.136 0.371,0.204 0.574,0.204 h 8.094 c 0.071,0 0.134,-0.018 0.192,-0.053 0.056,-0.035 0.102,-0.092 0.137,-0.172 0.036,-0.079 0.065,-0.177 0.086,-0.295 0.023,-0.12 0.034,-0.267 0.034,-0.443 0,-0.158 -0.011,-0.296 -0.034,-0.415 -0.021,-0.118 -0.05,-0.216 -0.086,-0.29 -0.035,-0.075 -0.081,-0.13 -0.137,-0.165 -0.058,-0.035 -0.121,-0.053 -0.192,-0.053 H -7.225 V 8.886 h 5.722 c 0.07,0 0.134,-0.02 0.191,-0.059 0.057,-0.04 0.106,-0.095 0.145,-0.165 0.04,-0.07 0.068,-0.167 0.086,-0.29 0.018,-0.123 0.026,-0.268 0.026,-0.435 0,-0.159 -0.008,-0.294 -0.026,-0.409 C -1.099,7.414 -1.127,7.321 -1.167,7.251 -1.206,7.181 -1.255,7.13 -1.312,7.1 -1.369,7.068 -1.433,7.054 -1.503,7.054 H -7.225 V 0.949 h 6.764 c 0.069,0 0.134,-0.017 0.19,-0.053 0.058,-0.035 0.108,-0.089 0.152,-0.164 0.044,-0.075 0.075,-0.171 0.093,-0.29 C -0.009,0.323 0,0.176 0,0"
             style="fill:#1fa1e2;fill-opacity:1;fill-rule:nonzero;stroke:none"
             id="path64"
             inkscape:connector-curvature="0" /></g><g
           id="g66"
           transform="translate(311.3359,360.7461)"><path
             d="M 0,0 C 0,-0.141 -0.005,-0.264 -0.014,-0.369 -0.022,-0.475 -0.037,-0.566 -0.06,-0.646 -0.081,-0.725 -0.11,-0.795 -0.145,-0.856 -0.181,-0.918 -0.242,-0.993 -0.33,-1.081 -0.418,-1.169 -0.603,-1.303 -0.883,-1.482 -1.165,-1.663 -1.514,-1.839 -1.932,-2.01 -2.349,-2.182 -2.828,-2.326 -3.368,-2.445 -3.909,-2.563 -4.5,-2.623 -5.142,-2.623 c -1.107,0 -2.107,0.185 -2.999,0.554 -0.892,0.369 -1.652,0.914 -2.281,1.634 -0.628,0.721 -1.111,1.611 -1.45,2.67 -0.338,1.059 -0.506,2.279 -0.506,3.659 0,1.415 0.181,2.675 0.546,3.783 0.364,1.107 0.877,2.046 1.535,2.815 0.66,0.769 1.448,1.356 2.367,1.76 0.918,0.404 1.936,0.606 3.052,0.606 0.492,0 0.971,-0.045 1.437,-0.138 0.465,-0.092 0.896,-0.209 1.293,-0.35 0.394,-0.141 0.746,-0.303 1.054,-0.487 0.307,-0.185 0.521,-0.336 0.639,-0.455 0.119,-0.118 0.195,-0.209 0.23,-0.271 0.036,-0.061 0.065,-0.134 0.086,-0.217 0.023,-0.084 0.04,-0.182 0.053,-0.296 0.014,-0.115 0.02,-0.251 0.02,-0.41 0,-0.175 -0.009,-0.325 -0.027,-0.448 -0.017,-0.123 -0.044,-0.226 -0.079,-0.309 -0.035,-0.084 -0.077,-0.145 -0.126,-0.185 -0.049,-0.039 -0.108,-0.06 -0.179,-0.06 -0.124,0 -0.295,0.086 -0.517,0.258 -0.221,0.171 -0.506,0.36 -0.855,0.567 -0.348,0.206 -0.773,0.395 -1.272,0.567 -0.499,0.171 -1.098,0.257 -1.796,0.257 -0.76,0 -1.451,-0.152 -2.074,-0.455 C -7.614,12.123 -8.146,11.677 -8.588,11.088 -9.03,10.499 -9.372,9.78 -9.615,8.933 -9.858,8.084 -9.98,7.115 -9.98,6.025 c 0,-1.081 0.117,-2.037 0.351,-2.867 0.234,-0.831 0.57,-1.525 1.008,-2.083 0.436,-0.558 0.974,-0.98 1.61,-1.265 0.636,-0.287 1.356,-0.429 2.16,-0.429 0.68,0 1.275,0.083 1.783,0.25 0.507,0.167 0.941,0.353 1.298,0.56 0.358,0.206 0.652,0.394 0.882,0.561 0.23,0.167 0.41,0.25 0.543,0.25 0.062,0 0.116,-0.013 0.159,-0.039 0.044,-0.026 0.08,-0.077 0.107,-0.151 C -0.053,0.736 -0.033,0.633 -0.02,0.501 -0.007,0.369 0,0.202 0,0"
             style="fill:#1fa1e2;fill-opacity:1;fill-rule:nonzero;stroke:none"
             id="path68"
             inkscape:connector-curvature="0" /></g><g
           id="g70"
           transform="translate(326.6289,358.6768)"><path
             d="m 0,0 c 0,-0.07 -0.018,-0.132 -0.053,-0.185 -0.035,-0.052 -0.096,-0.094 -0.184,-0.125 -0.088,-0.031 -0.204,-0.057 -0.35,-0.079 -0.144,-0.022 -0.323,-0.033 -0.534,-0.033 -0.229,0 -0.413,0.011 -0.553,0.033 -0.141,0.022 -0.256,0.048 -0.344,0.079 -0.087,0.031 -0.149,0.073 -0.183,0.125 C -2.237,-0.132 -2.254,-0.07 -2.254,0 V 7.567 H -10.02 V 0 c 0,-0.07 -0.017,-0.132 -0.052,-0.185 -0.035,-0.052 -0.097,-0.094 -0.185,-0.125 -0.088,-0.031 -0.204,-0.057 -0.349,-0.079 -0.145,-0.022 -0.328,-0.033 -0.547,-0.033 -0.211,0 -0.392,0.011 -0.54,0.033 -0.151,0.022 -0.269,0.048 -0.357,0.079 -0.088,0.031 -0.149,0.073 -0.184,0.125 -0.036,0.053 -0.053,0.115 -0.053,0.185 v 16.374 c 0,0.07 0.017,0.132 0.053,0.185 0.035,0.052 0.096,0.093 0.184,0.125 0.088,0.03 0.206,0.056 0.357,0.079 0.148,0.021 0.329,0.033 0.54,0.033 0.219,0 0.402,-0.012 0.547,-0.033 0.145,-0.023 0.261,-0.049 0.349,-0.079 0.088,-0.032 0.15,-0.073 0.185,-0.125 0.035,-0.053 0.052,-0.115 0.052,-0.185 V 9.545 h 7.766 v 6.829 c 0,0.07 0.017,0.132 0.053,0.185 0.034,0.052 0.096,0.093 0.183,0.125 0.088,0.03 0.203,0.056 0.344,0.079 0.14,0.021 0.324,0.033 0.553,0.033 0.211,0 0.39,-0.012 0.534,-0.033 0.146,-0.023 0.262,-0.049 0.35,-0.079 0.088,-0.032 0.149,-0.073 0.184,-0.125 C -0.018,16.506 0,16.444 0,16.374 Z"
             style="fill:#1fa1e2;fill-opacity:1;fill-rule:nonzero;stroke:none"
             id="path72"
             inkscape:connector-curvature="0" /></g><g
           id="g74"
           transform="translate(344.0576,359.2695)"><path
             d="M 0,0 C 0,-0.176 -0.029,-0.325 -0.089,-0.448 -0.147,-0.571 -0.225,-0.672 -0.32,-0.751 -0.416,-0.83 -0.522,-0.888 -0.641,-0.923 -0.759,-0.958 -0.877,-0.976 -0.995,-0.976 h -0.75 c -0.236,0 -0.443,0.025 -0.62,0.074 -0.178,0.048 -0.346,0.135 -0.505,0.263 -0.159,0.127 -0.318,0.301 -0.478,0.521 -0.159,0.22 -0.328,0.501 -0.506,0.844 l -5.204,9.703 c -0.272,0.501 -0.546,1.025 -0.823,1.575 -0.276,0.549 -0.533,1.083 -0.771,1.601 h -0.027 c 0.018,-0.632 0.031,-1.278 0.039,-1.937 0.009,-0.659 0.014,-1.314 0.014,-1.965 V -0.593 c 0,-0.061 -0.019,-0.121 -0.056,-0.178 -0.037,-0.057 -0.099,-0.101 -0.187,-0.131 -0.089,-0.032 -0.204,-0.058 -0.348,-0.079 -0.144,-0.023 -0.327,-0.034 -0.55,-0.034 -0.222,0 -0.406,0.011 -0.549,0.034 -0.144,0.021 -0.257,0.047 -0.341,0.079 -0.083,0.03 -0.144,0.074 -0.181,0.131 -0.037,0.057 -0.056,0.117 -0.056,0.178 v 15.741 c 0,0.352 0.1,0.602 0.299,0.751 0.2,0.15 0.418,0.225 0.654,0.225 h 1.116 c 0.262,0 0.482,-0.022 0.66,-0.066 0.177,-0.044 0.335,-0.117 0.476,-0.217 0.14,-0.102 0.277,-0.242 0.408,-0.422 0.132,-0.181 0.269,-0.407 0.414,-0.68 L -4.866,7.251 C -4.619,6.794 -4.382,6.349 -4.152,5.913 -3.923,5.479 -3.702,5.05 -3.49,4.628 -3.277,4.206 -3.067,3.791 -2.859,3.382 -2.651,2.974 -2.445,2.563 -2.241,2.149 h 0.013 c -0.018,0.695 -0.029,1.417 -0.033,2.169 -0.005,0.751 -0.007,1.474 -0.007,2.168 v 9.255 c 0,0.062 0.019,0.119 0.056,0.172 0.037,0.053 0.1,0.099 0.188,0.139 0.087,0.039 0.204,0.067 0.347,0.085 0.145,0.017 0.332,0.026 0.564,0.026 0.204,0 0.381,-0.009 0.529,-0.026 0.147,-0.018 0.264,-0.046 0.348,-0.085 0.083,-0.04 0.143,-0.086 0.18,-0.139 C -0.019,15.86 0,15.803 0,15.741 Z"
             style="fill:#1fa1e2;fill-opacity:1;fill-rule:nonzero;stroke:none"
             id="path76"
             inkscape:connector-curvature="0" /></g><g
           id="g78"
           transform="translate(360.4844,366.9033)"><path
             d="m 0,0 c 0,0.967 -0.086,1.865 -0.257,2.696 -0.171,0.83 -0.456,1.551 -0.855,2.162 -0.4,0.611 -0.934,1.087 -1.601,1.43 -0.667,0.343 -1.492,0.515 -2.475,0.515 -0.983,0 -1.808,-0.185 -2.475,-0.554 C -8.33,5.88 -8.872,5.388 -9.289,4.772 -9.706,4.157 -10.005,3.438 -10.185,2.617 c -0.18,-0.822 -0.269,-1.685 -0.269,-2.591 0,-1.002 0.083,-1.924 0.25,-2.768 0.166,-0.844 0.447,-1.571 0.843,-2.182 0.394,-0.611 0.923,-1.086 1.586,-1.424 0.663,-0.339 1.495,-0.507 2.495,-0.507 0.992,0 1.826,0.184 2.502,0.553 0.675,0.369 1.219,0.867 1.632,1.496 0.413,0.628 0.707,1.356 0.882,2.182 C -0.088,-1.798 0,-0.923 0,0 m 2.399,0.158 c 0,-1.38 -0.163,-2.624 -0.488,-3.731 C 1.586,-4.681 1.101,-5.623 0.455,-6.4 -0.191,-7.179 -1.002,-7.776 -1.978,-8.193 -2.953,-8.611 -4.092,-8.82 -5.392,-8.82 c -1.284,0 -2.393,0.191 -3.329,0.574 -0.936,0.382 -1.71,0.937 -2.32,1.667 -0.611,0.729 -1.066,1.635 -1.364,2.716 -0.3,1.081 -0.449,2.325 -0.449,3.731 0,1.345 0.163,2.567 0.488,3.665 0.325,1.099 0.812,2.032 1.463,2.802 0.65,0.769 1.464,1.361 2.439,1.779 0.976,0.417 2.113,0.626 3.414,0.626 1.257,0 2.352,-0.188 3.283,-0.566 C -0.835,7.796 -0.06,7.244 0.561,6.52 1.18,5.794 1.642,4.897 1.944,3.83 2.248,2.762 2.399,1.538 2.399,0.158"
             style="fill:#1fa1e2;fill-opacity:1;fill-rule:nonzero;stroke:none"
             id="path80"
             inkscape:connector-curvature="0" /></g><g
           id="g82"
           transform="translate(375.3154,359.3223)"><path
             d="m 0,0 c 0,-0.176 -0.009,-0.322 -0.025,-0.441 -0.019,-0.119 -0.047,-0.22 -0.086,-0.303 -0.04,-0.084 -0.088,-0.146 -0.146,-0.185 -0.056,-0.04 -0.125,-0.059 -0.204,-0.059 h -7.541 c -0.202,0 -0.394,0.067 -0.573,0.204 -0.181,0.136 -0.271,0.376 -0.271,0.719 v 15.794 c 0,0.07 0.018,0.131 0.053,0.184 0.035,0.053 0.097,0.094 0.185,0.125 0.087,0.03 0.206,0.057 0.356,0.079 0.148,0.022 0.329,0.033 0.54,0.033 0.22,0 0.402,-0.011 0.547,-0.033 0.145,-0.022 0.262,-0.049 0.35,-0.079 0.087,-0.031 0.149,-0.072 0.184,-0.125 0.035,-0.053 0.053,-0.114 0.053,-0.184 V 0.976 h 6.117 c 0.079,0 0.148,-0.02 0.204,-0.059 0.058,-0.04 0.106,-0.098 0.146,-0.172 C -0.072,0.67 -0.044,0.571 -0.025,0.448 -0.009,0.325 0,0.176 0,0"
             style="fill:#1fa1e2;fill-opacity:1;fill-rule:nonzero;stroke:none"
             id="path84"
             inkscape:connector-curvature="0" /></g><g
           id="g86"
           transform="translate(389.1191,366.9033)"><path
             d="m 0,0 c 0,0.967 -0.086,1.865 -0.257,2.696 -0.171,0.83 -0.456,1.551 -0.855,2.162 -0.4,0.611 -0.934,1.087 -1.601,1.43 -0.667,0.343 -1.492,0.515 -2.475,0.515 -0.983,0 -1.808,-0.185 -2.475,-0.554 C -8.33,5.88 -8.872,5.388 -9.289,4.772 -9.706,4.157 -10.005,3.438 -10.185,2.617 c -0.18,-0.822 -0.269,-1.685 -0.269,-2.591 0,-1.002 0.083,-1.924 0.25,-2.768 0.166,-0.844 0.447,-1.571 0.843,-2.182 0.394,-0.611 0.923,-1.086 1.586,-1.424 0.663,-0.339 1.495,-0.507 2.495,-0.507 0.992,0 1.826,0.184 2.502,0.553 0.675,0.369 1.219,0.867 1.632,1.496 0.413,0.628 0.707,1.356 0.882,2.182 C -0.088,-1.798 0,-0.923 0,0 m 2.399,0.158 c 0,-1.38 -0.163,-2.624 -0.488,-3.731 C 1.586,-4.681 1.101,-5.623 0.455,-6.4 -0.191,-7.179 -1.002,-7.776 -1.978,-8.193 -2.953,-8.611 -4.092,-8.82 -5.392,-8.82 c -1.284,0 -2.393,0.191 -3.329,0.574 -0.936,0.382 -1.71,0.937 -2.32,1.667 -0.611,0.729 -1.066,1.635 -1.364,2.716 -0.3,1.081 -0.449,2.325 -0.449,3.731 0,1.345 0.163,2.567 0.488,3.665 0.325,1.099 0.812,2.032 1.463,2.802 0.65,0.769 1.464,1.361 2.439,1.779 0.976,0.417 2.113,0.626 3.414,0.626 1.257,0 2.352,-0.188 3.283,-0.566 C -0.835,7.796 -0.06,7.244 0.561,6.52 1.18,5.794 1.642,4.897 1.944,3.83 2.248,2.762 2.399,1.538 2.399,0.158"
             style="fill:#1fa1e2;fill-opacity:1;fill-rule:nonzero;stroke:none"
             id="path88"
             inkscape:connector-curvature="0" /></g><g
           id="g90"
           transform="translate(407.9189,373.0732)"><path
             d="m 0,0 c 0,-0.167 -0.009,-0.314 -0.026,-0.441 -0.018,-0.128 -0.044,-0.234 -0.079,-0.317 -0.036,-0.084 -0.08,-0.143 -0.132,-0.179 -0.053,-0.035 -0.111,-0.052 -0.171,-0.052 -0.106,0 -0.282,0.084 -0.528,0.251 -0.247,0.167 -0.576,0.351 -0.989,0.553 -0.413,0.203 -0.907,0.387 -1.483,0.554 -0.575,0.167 -1.259,0.25 -2.05,0.25 -0.94,0 -1.784,-0.171 -2.531,-0.514 -0.747,-0.342 -1.38,-0.817 -1.899,-1.423 -0.518,-0.607 -0.916,-1.328 -1.193,-2.162 -0.276,-0.835 -0.415,-1.741 -0.415,-2.716 0,-1.09 0.151,-2.057 0.455,-2.901 0.303,-0.843 0.723,-1.555 1.259,-2.135 0.536,-0.581 1.176,-1.02 1.918,-1.319 0.743,-0.299 1.557,-0.448 2.446,-0.448 0.527,0 1.061,0.063 1.602,0.191 0.54,0.127 1.043,0.319 1.509,0.574 v 4.969 h -3.955 c -0.15,0 -0.261,0.076 -0.337,0.225 -0.074,0.149 -0.112,0.382 -0.112,0.698 0,0.167 0.009,0.311 0.027,0.429 0.017,0.119 0.046,0.215 0.085,0.29 0.04,0.074 0.086,0.13 0.139,0.165 0.053,0.035 0.118,0.053 0.198,0.053 h 5.418 c 0.097,0 0.194,-0.018 0.29,-0.053 0.097,-0.035 0.185,-0.088 0.264,-0.158 0.079,-0.071 0.141,-0.167 0.185,-0.29 0.043,-0.123 0.066,-0.264 0.066,-0.422 v -6.5 c 0,-0.229 -0.04,-0.426 -0.119,-0.593 -0.079,-0.167 -0.246,-0.314 -0.501,-0.441 -0.255,-0.128 -0.585,-0.267 -0.989,-0.416 -0.405,-0.15 -0.822,-0.277 -1.252,-0.382 -0.431,-0.106 -0.867,-0.185 -1.305,-0.237 -0.441,-0.053 -0.875,-0.08 -1.306,-0.08 -1.318,0 -2.496,0.205 -3.533,0.614 -1.037,0.408 -1.914,0.99 -2.63,1.746 -0.717,0.756 -1.264,1.661 -1.641,2.716 -0.378,1.054 -0.568,2.232 -0.568,3.533 0,1.353 0.205,2.58 0.613,3.679 0.41,1.098 0.985,2.034 1.728,2.807 0.742,0.774 1.635,1.373 2.676,1.8 1.042,0.426 2.195,0.64 3.461,0.64 0.65,0 1.26,-0.058 1.833,-0.172 C -3.002,2.271 -2.494,2.138 -2.05,1.984 -1.606,1.83 -1.232,1.663 -0.93,1.483 -0.626,1.303 -0.418,1.155 -0.303,1.041 -0.189,0.927 -0.11,0.795 -0.066,0.646 -0.022,0.496 0,0.281 0,0"
             style="fill:#1fa1e2;fill-opacity:1;fill-rule:nonzero;stroke:none"
             id="path92"
             inkscape:connector-curvature="0" /></g><g
           id="g94"
           transform="translate(414.4053,358.6768)"><path
             d="m 0,0 c 0,-0.07 -0.018,-0.132 -0.053,-0.185 -0.035,-0.052 -0.096,-0.094 -0.184,-0.125 -0.088,-0.031 -0.204,-0.057 -0.35,-0.079 -0.144,-0.022 -0.327,-0.033 -0.547,-0.033 -0.211,0 -0.391,0.011 -0.54,0.033 -0.15,0.022 -0.268,0.048 -0.356,0.079 -0.088,0.031 -0.15,0.073 -0.185,0.125 C -2.25,-0.132 -2.268,-0.07 -2.268,0 v 16.374 c 0,0.07 0.02,0.132 0.06,0.185 0.039,0.052 0.105,0.093 0.197,0.125 0.093,0.03 0.211,0.056 0.357,0.079 0.144,0.021 0.318,0.033 0.52,0.033 0.22,0 0.403,-0.012 0.547,-0.033 0.146,-0.023 0.262,-0.049 0.35,-0.079 0.088,-0.032 0.149,-0.073 0.184,-0.125 C -0.018,16.506 0,16.444 0,16.374 Z"
             style="fill:#1fa1e2;fill-opacity:1;fill-rule:nonzero;stroke:none"
             id="path96"
             inkscape:connector-curvature="0" /></g><g
           id="g98"
           transform="translate(428.4326,359.2695)"><path
             d="m 0,0 c 0,-0.158 -0.009,-0.296 -0.026,-0.415 -0.018,-0.118 -0.049,-0.218 -0.093,-0.297 -0.044,-0.079 -0.094,-0.136 -0.152,-0.171 -0.056,-0.035 -0.121,-0.053 -0.19,-0.053 h -8.187 c -0.203,0 -0.394,0.068 -0.574,0.205 -0.18,0.135 -0.27,0.376 -0.27,0.718 v 15.214 c 0,0.343 0.09,0.582 0.27,0.719 0.18,0.136 0.371,0.204 0.574,0.204 h 8.094 c 0.071,0 0.134,-0.018 0.192,-0.053 0.056,-0.035 0.102,-0.092 0.137,-0.172 0.036,-0.079 0.065,-0.177 0.086,-0.295 0.023,-0.12 0.034,-0.267 0.034,-0.443 0,-0.158 -0.011,-0.296 -0.034,-0.415 -0.021,-0.118 -0.05,-0.216 -0.086,-0.29 -0.035,-0.075 -0.081,-0.13 -0.137,-0.165 -0.058,-0.035 -0.121,-0.053 -0.192,-0.053 H -7.225 V 8.886 h 5.722 c 0.07,0 0.134,-0.02 0.191,-0.059 0.057,-0.04 0.106,-0.095 0.145,-0.165 0.04,-0.07 0.068,-0.167 0.086,-0.29 0.018,-0.123 0.026,-0.268 0.026,-0.435 0,-0.159 -0.008,-0.294 -0.026,-0.409 C -1.099,7.414 -1.127,7.321 -1.167,7.251 -1.206,7.181 -1.255,7.13 -1.312,7.1 -1.369,7.068 -1.433,7.054 -1.503,7.054 H -7.225 V 0.949 h 6.764 c 0.069,0 0.134,-0.017 0.19,-0.053 0.058,-0.035 0.108,-0.089 0.152,-0.164 0.044,-0.075 0.075,-0.171 0.093,-0.29 C -0.009,0.323 0,0.176 0,0"
             style="fill:#1fa1e2;fill-opacity:1;fill-rule:nonzero;stroke:none"
             id="path100"
             inkscape:connector-curvature="0" /></g><g
           id="g102"
           transform="translate(441.0225,363.1191)"><path
             d="m 0,0 c 0,-0.8 -0.146,-1.512 -0.441,-2.136 -0.294,-0.624 -0.704,-1.153 -1.226,-1.588 -0.523,-0.435 -1.139,-0.762 -1.846,-0.982 -0.708,-0.22 -1.469,-0.33 -2.288,-0.33 -0.571,0 -1.1,0.049 -1.588,0.145 -0.488,0.097 -0.923,0.215 -1.305,0.356 -0.382,0.14 -0.703,0.286 -0.962,0.435 -0.26,0.15 -0.44,0.277 -0.541,0.382 -0.101,0.106 -0.176,0.239 -0.224,0.403 -0.049,0.162 -0.073,0.379 -0.073,0.652 0,0.193 0.009,0.353 0.027,0.481 0.017,0.127 0.043,0.231 0.078,0.31 0.035,0.079 0.08,0.134 0.133,0.165 0.053,0.03 0.113,0.046 0.184,0.046 0.123,0 0.297,-0.074 0.521,-0.224 0.224,-0.149 0.512,-0.312 0.863,-0.488 0.352,-0.176 0.776,-0.341 1.273,-0.494 0.496,-0.154 1.069,-0.231 1.72,-0.231 0.492,0 0.943,0.066 1.351,0.198 0.409,0.131 0.761,0.318 1.055,0.56 0.295,0.241 0.521,0.538 0.68,0.89 0.158,0.351 0.236,0.752 0.236,1.2 0,0.483 -0.109,0.896 -0.329,1.239 -0.22,0.343 -0.51,0.644 -0.87,0.904 -0.361,0.258 -0.772,0.496 -1.233,0.711 -0.462,0.215 -0.934,0.435 -1.418,0.66 -0.483,0.223 -0.953,0.471 -1.41,0.744 C -8.09,4.28 -8.499,4.602 -8.859,4.971 -9.22,5.34 -9.512,5.772 -9.735,6.27 c -0.225,0.496 -0.337,1.091 -0.337,1.786 0,0.712 0.13,1.346 0.389,1.905 0.259,0.558 0.62,1.025 1.081,1.403 0.461,0.378 1.011,0.666 1.648,0.865 0.638,0.197 1.325,0.295 2.063,0.295 0.378,0 0.758,-0.032 1.141,-0.098 0.382,-0.066 0.742,-0.155 1.081,-0.264 0.338,-0.11 0.64,-0.233 0.903,-0.369 0.264,-0.137 0.437,-0.246 0.521,-0.329 0.083,-0.084 0.138,-0.151 0.165,-0.198 0.025,-0.049 0.048,-0.111 0.065,-0.185 0.018,-0.075 0.031,-0.165 0.04,-0.27 0.008,-0.106 0.013,-0.242 0.013,-0.409 0,-0.158 -0.007,-0.298 -0.019,-0.422 C -0.995,9.857 -1.015,9.754 -1.041,9.671 -1.067,9.587 -1.104,9.525 -1.153,9.486 -1.201,9.446 -1.257,9.427 -1.318,9.427 c -0.097,0 -0.248,0.061 -0.454,0.184 -0.207,0.123 -0.46,0.261 -0.759,0.415 -0.299,0.154 -0.653,0.294 -1.061,0.422 -0.409,0.127 -0.868,0.192 -1.378,0.192 -0.474,0 -0.887,-0.065 -1.239,-0.192 C -6.561,10.32 -6.851,10.151 -7.079,9.94 -7.308,9.729 -7.479,9.479 -7.594,9.189 -7.708,8.899 -7.765,8.592 -7.765,8.267 c 0,-0.475 0.11,-0.884 0.329,-1.227 0.22,-0.343 0.513,-0.645 0.877,-0.909 C -6.193,5.867 -5.778,5.625 -5.313,5.405 -4.847,5.186 -4.372,4.964 -3.889,4.74 -3.405,4.516 -2.931,4.27 -2.465,4.002 -1.999,3.733 -1.584,3.417 -1.219,3.053 -0.854,2.688 -0.56,2.257 -0.336,1.761 -0.111,1.264 0,0.677 0,0"
             style="fill:#1fa1e2;fill-opacity:1;fill-rule:nonzero;stroke:none"
             id="path104"
             inkscape:connector-curvature="0" /></g><g
           id="g106"
           transform="translate(281.9858,391.1182)"><path
             d="m 0,0 c 0,-0.8 -0.146,-1.512 -0.441,-2.136 -0.294,-0.624 -0.704,-1.153 -1.226,-1.588 -0.523,-0.435 -1.139,-0.762 -1.846,-0.982 -0.708,-0.22 -1.469,-0.33 -2.288,-0.33 -0.571,0 -1.1,0.049 -1.588,0.145 -0.488,0.097 -0.923,0.215 -1.305,0.356 -0.382,0.14 -0.703,0.286 -0.962,0.435 -0.26,0.15 -0.44,0.277 -0.541,0.382 -0.101,0.106 -0.176,0.239 -0.224,0.403 -0.049,0.162 -0.073,0.379 -0.073,0.652 0,0.193 0.009,0.353 0.027,0.481 0.017,0.127 0.043,0.231 0.078,0.31 0.035,0.079 0.08,0.134 0.133,0.165 0.053,0.03 0.113,0.046 0.184,0.046 0.123,0 0.297,-0.074 0.521,-0.224 0.224,-0.149 0.512,-0.312 0.863,-0.488 0.352,-0.176 0.776,-0.341 1.273,-0.494 0.496,-0.154 1.069,-0.231 1.72,-0.231 0.492,0 0.943,0.066 1.351,0.198 0.409,0.131 0.761,0.318 1.055,0.56 0.295,0.241 0.521,0.538 0.68,0.89 0.158,0.351 0.236,0.752 0.236,1.2 0,0.483 -0.109,0.896 -0.329,1.239 -0.22,0.343 -0.51,0.644 -0.87,0.904 -0.361,0.258 -0.772,0.496 -1.233,0.711 -0.462,0.215 -0.934,0.435 -1.418,0.66 -0.483,0.223 -0.953,0.471 -1.41,0.744 C -8.09,4.28 -8.499,4.602 -8.859,4.971 -9.22,5.34 -9.512,5.772 -9.735,6.27 c -0.225,0.496 -0.337,1.091 -0.337,1.786 0,0.712 0.13,1.346 0.389,1.905 0.259,0.558 0.62,1.025 1.081,1.403 0.461,0.378 1.011,0.666 1.648,0.865 0.638,0.197 1.325,0.295 2.063,0.295 0.378,0 0.758,-0.032 1.141,-0.098 0.382,-0.066 0.742,-0.155 1.081,-0.264 0.338,-0.11 0.64,-0.233 0.903,-0.369 0.264,-0.137 0.437,-0.246 0.521,-0.329 0.083,-0.084 0.138,-0.151 0.165,-0.198 0.025,-0.049 0.048,-0.111 0.065,-0.185 0.018,-0.075 0.031,-0.165 0.04,-0.27 0.008,-0.106 0.013,-0.242 0.013,-0.409 0,-0.158 -0.007,-0.298 -0.019,-0.422 C -0.995,9.857 -1.015,9.754 -1.041,9.671 -1.067,9.587 -1.104,9.525 -1.153,9.486 -1.201,9.446 -1.257,9.427 -1.318,9.427 c -0.097,0 -0.248,0.061 -0.454,0.184 -0.207,0.123 -0.46,0.261 -0.759,0.415 -0.299,0.154 -0.653,0.294 -1.061,0.422 -0.409,0.127 -0.868,0.192 -1.378,0.192 -0.474,0 -0.887,-0.065 -1.239,-0.192 C -6.561,10.32 -6.851,10.151 -7.079,9.94 -7.308,9.729 -7.479,9.479 -7.594,9.189 -7.708,8.899 -7.765,8.592 -7.765,8.267 c 0,-0.475 0.11,-0.884 0.329,-1.227 0.22,-0.343 0.513,-0.645 0.877,-0.909 C -6.193,5.867 -5.778,5.625 -5.313,5.405 -4.847,5.186 -4.372,4.964 -3.889,4.74 -3.405,4.516 -2.931,4.27 -2.465,4.002 -1.999,3.733 -1.584,3.417 -1.219,3.053 -0.854,2.688 -0.56,2.257 -0.336,1.761 -0.111,1.264 0,0.677 0,0"
             style="fill:#1fa1e2;fill-opacity:1;fill-rule:nonzero;stroke:none"
             id="path108"
             inkscape:connector-curvature="0" /></g><g
           id="g110"
           transform="translate(301.3447,388.7451)"><path
             d="M 0,0 C 0,-0.141 -0.005,-0.264 -0.014,-0.369 -0.022,-0.475 -0.037,-0.566 -0.06,-0.646 -0.081,-0.725 -0.11,-0.795 -0.145,-0.856 -0.181,-0.918 -0.242,-0.993 -0.33,-1.081 -0.418,-1.169 -0.603,-1.303 -0.883,-1.482 -1.165,-1.663 -1.514,-1.839 -1.932,-2.01 -2.348,-2.182 -2.828,-2.326 -3.368,-2.445 -3.909,-2.563 -4.5,-2.623 -5.141,-2.623 c -1.108,0 -2.108,0.185 -2.999,0.554 -0.893,0.369 -1.652,0.914 -2.281,1.634 -0.628,0.721 -1.112,1.611 -1.451,2.67 -0.337,1.059 -0.506,2.279 -0.506,3.659 0,1.415 0.181,2.675 0.546,3.783 0.365,1.107 0.877,2.046 1.536,2.815 0.66,0.769 1.448,1.356 2.367,1.76 0.918,0.404 1.935,0.606 3.052,0.606 0.492,0 0.97,-0.045 1.436,-0.138 0.466,-0.092 0.897,-0.209 1.293,-0.35 0.394,-0.141 0.746,-0.303 1.054,-0.487 0.307,-0.185 0.521,-0.336 0.639,-0.455 0.119,-0.118 0.195,-0.209 0.23,-0.271 0.036,-0.061 0.065,-0.134 0.086,-0.217 0.023,-0.084 0.04,-0.182 0.053,-0.296 0.014,-0.115 0.02,-0.251 0.02,-0.41 0,-0.175 -0.009,-0.325 -0.027,-0.448 -0.017,-0.123 -0.044,-0.226 -0.079,-0.309 -0.035,-0.084 -0.077,-0.145 -0.126,-0.185 -0.049,-0.039 -0.108,-0.06 -0.179,-0.06 -0.124,0 -0.295,0.086 -0.517,0.258 -0.221,0.171 -0.506,0.36 -0.855,0.567 -0.348,0.206 -0.773,0.395 -1.272,0.567 -0.499,0.171 -1.097,0.257 -1.796,0.257 -0.759,0 -1.451,-0.152 -2.074,-0.455 C -7.614,12.123 -8.146,11.677 -8.587,11.088 -9.03,10.499 -9.372,9.78 -9.615,8.933 -9.858,8.084 -9.98,7.115 -9.98,6.025 c 0,-1.081 0.117,-2.037 0.352,-2.867 0.234,-0.831 0.57,-1.525 1.007,-2.083 0.437,-0.558 0.974,-0.98 1.611,-1.265 0.635,-0.287 1.355,-0.429 2.16,-0.429 0.68,0 1.274,0.083 1.782,0.25 0.508,0.167 0.941,0.353 1.298,0.56 0.358,0.206 0.652,0.394 0.882,0.561 0.23,0.167 0.41,0.25 0.543,0.25 0.062,0 0.116,-0.013 0.159,-0.039 0.044,-0.026 0.08,-0.077 0.107,-0.151 C -0.053,0.736 -0.033,0.633 -0.02,0.501 -0.007,0.369 0,0.202 0,0"
             style="fill:#1fa1e2;fill-opacity:1;fill-rule:nonzero;stroke:none"
             id="path112"
             inkscape:connector-curvature="0" /></g><g
           id="g114"
           transform="translate(311.3428,386.6758)"><path
             d="m 0,0 c 0,-0.07 -0.018,-0.132 -0.053,-0.185 -0.035,-0.052 -0.096,-0.094 -0.184,-0.125 -0.088,-0.031 -0.204,-0.057 -0.35,-0.079 -0.144,-0.022 -0.327,-0.033 -0.547,-0.033 -0.211,0 -0.391,0.011 -0.54,0.033 -0.15,0.022 -0.268,0.048 -0.356,0.079 -0.088,0.031 -0.15,0.073 -0.185,0.125 C -2.25,-0.132 -2.268,-0.07 -2.268,0 v 16.374 c 0,0.07 0.02,0.132 0.06,0.185 0.039,0.052 0.105,0.093 0.197,0.125 0.093,0.03 0.211,0.056 0.357,0.079 0.144,0.021 0.318,0.033 0.52,0.033 0.22,0 0.403,-0.012 0.547,-0.033 0.146,-0.023 0.262,-0.049 0.35,-0.079 0.088,-0.032 0.149,-0.073 0.184,-0.125 C -0.018,16.506 0,16.444 0,16.374 Z"
             style="fill:#1fa1e2;fill-opacity:1;fill-rule:nonzero;stroke:none"
             id="path116"
             inkscape:connector-curvature="0" /></g><g
           id="g118"
           transform="translate(330.0957,387.2686)"><path
             d="m 0,0 c 0,-0.158 -0.009,-0.296 -0.026,-0.415 -0.018,-0.118 -0.049,-0.218 -0.093,-0.297 -0.044,-0.079 -0.094,-0.136 -0.152,-0.171 -0.056,-0.035 -0.121,-0.053 -0.19,-0.053 h -8.187 c -0.203,0 -0.394,0.068 -0.574,0.205 -0.18,0.135 -0.27,0.376 -0.27,0.718 v 15.214 c 0,0.343 0.09,0.582 0.27,0.719 0.18,0.136 0.371,0.204 0.574,0.204 h 8.094 c 0.071,0 0.134,-0.018 0.192,-0.053 0.056,-0.035 0.102,-0.092 0.137,-0.172 0.036,-0.079 0.065,-0.177 0.086,-0.295 0.023,-0.12 0.034,-0.267 0.034,-0.443 0,-0.158 -0.011,-0.296 -0.034,-0.415 -0.021,-0.118 -0.05,-0.216 -0.086,-0.29 -0.035,-0.075 -0.081,-0.13 -0.137,-0.165 -0.058,-0.035 -0.121,-0.053 -0.192,-0.053 H -7.225 V 8.886 h 5.722 c 0.07,0 0.134,-0.02 0.191,-0.059 0.057,-0.04 0.106,-0.095 0.145,-0.165 0.04,-0.07 0.068,-0.167 0.086,-0.29 0.018,-0.123 0.026,-0.268 0.026,-0.435 0,-0.159 -0.008,-0.294 -0.026,-0.409 C -1.099,7.414 -1.127,7.321 -1.167,7.251 -1.206,7.181 -1.255,7.13 -1.312,7.1 -1.369,7.068 -1.433,7.054 -1.503,7.054 H -7.225 V 0.949 h 6.764 c 0.069,0 0.134,-0.017 0.19,-0.053 0.058,-0.035 0.108,-0.089 0.152,-0.164 0.044,-0.075 0.075,-0.171 0.093,-0.29 C -0.009,0.323 0,0.176 0,0"
             style="fill:#1fa1e2;fill-opacity:1;fill-rule:nonzero;stroke:none"
             id="path120"
             inkscape:connector-curvature="0" /></g><g
           id="g122"
           transform="translate(351.4053,387.2686)"><path
             d="M 0,0 C 0,-0.176 -0.029,-0.325 -0.089,-0.448 -0.147,-0.571 -0.225,-0.672 -0.32,-0.751 -0.416,-0.83 -0.522,-0.888 -0.641,-0.923 -0.759,-0.958 -0.877,-0.976 -0.995,-0.976 h -0.75 c -0.236,0 -0.443,0.025 -0.62,0.074 -0.178,0.048 -0.346,0.135 -0.505,0.263 -0.159,0.127 -0.318,0.301 -0.478,0.521 -0.159,0.22 -0.328,0.501 -0.506,0.844 l -5.204,9.703 c -0.272,0.501 -0.546,1.025 -0.823,1.575 -0.276,0.549 -0.533,1.083 -0.771,1.601 h -0.027 c 0.018,-0.632 0.031,-1.278 0.039,-1.937 0.009,-0.659 0.014,-1.314 0.014,-1.965 V -0.593 c 0,-0.061 -0.019,-0.121 -0.056,-0.178 -0.037,-0.057 -0.099,-0.101 -0.187,-0.131 -0.089,-0.032 -0.204,-0.058 -0.348,-0.079 -0.144,-0.023 -0.327,-0.034 -0.55,-0.034 -0.222,0 -0.406,0.011 -0.549,0.034 -0.144,0.021 -0.257,0.047 -0.341,0.079 -0.083,0.03 -0.144,0.074 -0.181,0.131 -0.037,0.057 -0.056,0.117 -0.056,0.178 v 15.741 c 0,0.352 0.1,0.602 0.299,0.751 0.2,0.15 0.418,0.225 0.654,0.225 h 1.116 c 0.262,0 0.482,-0.022 0.66,-0.066 0.177,-0.044 0.335,-0.117 0.476,-0.217 0.14,-0.102 0.277,-0.242 0.408,-0.422 0.132,-0.181 0.269,-0.407 0.414,-0.68 L -4.866,7.251 C -4.619,6.794 -4.382,6.349 -4.152,5.913 -3.923,5.479 -3.702,5.05 -3.49,4.628 -3.277,4.206 -3.067,3.791 -2.859,3.382 -2.651,2.974 -2.445,2.563 -2.241,2.149 h 0.013 c -0.018,0.695 -0.029,1.417 -0.033,2.169 -0.005,0.751 -0.007,1.474 -0.007,2.168 v 9.255 c 0,0.062 0.019,0.119 0.056,0.172 0.037,0.053 0.1,0.099 0.188,0.139 0.087,0.039 0.204,0.067 0.347,0.085 0.145,0.017 0.332,0.026 0.564,0.026 0.204,0 0.381,-0.009 0.529,-0.026 0.147,-0.018 0.264,-0.046 0.348,-0.085 0.083,-0.04 0.143,-0.086 0.18,-0.139 C -0.019,15.86 0,15.803 0,15.741 Z"
             style="fill:#1fa1e2;fill-opacity:1;fill-rule:nonzero;stroke:none"
             id="path124"
             inkscape:connector-curvature="0" /></g><g
           id="g126"
           transform="translate(372.0566,388.7451)"><path
             d="M 0,0 C 0,-0.141 -0.005,-0.264 -0.014,-0.369 -0.022,-0.475 -0.037,-0.566 -0.06,-0.646 -0.081,-0.725 -0.11,-0.795 -0.145,-0.856 -0.181,-0.918 -0.242,-0.993 -0.33,-1.081 -0.418,-1.169 -0.603,-1.303 -0.883,-1.482 -1.165,-1.663 -1.514,-1.839 -1.932,-2.01 -2.349,-2.182 -2.828,-2.326 -3.368,-2.445 -3.909,-2.563 -4.5,-2.623 -5.142,-2.623 c -1.107,0 -2.107,0.185 -2.999,0.554 -0.892,0.369 -1.652,0.914 -2.281,1.634 -0.628,0.721 -1.111,1.611 -1.45,2.67 -0.338,1.059 -0.507,2.279 -0.507,3.659 0,1.415 0.182,2.675 0.547,3.783 0.364,1.107 0.877,2.046 1.535,2.815 0.66,0.769 1.448,1.356 2.367,1.76 0.918,0.404 1.936,0.606 3.052,0.606 0.492,0 0.971,-0.045 1.437,-0.138 0.465,-0.092 0.896,-0.209 1.293,-0.35 0.394,-0.141 0.746,-0.303 1.054,-0.487 0.307,-0.185 0.521,-0.336 0.639,-0.455 0.119,-0.118 0.195,-0.209 0.23,-0.271 0.036,-0.061 0.065,-0.134 0.086,-0.217 0.023,-0.084 0.04,-0.182 0.053,-0.296 0.014,-0.115 0.02,-0.251 0.02,-0.41 0,-0.175 -0.009,-0.325 -0.027,-0.448 -0.017,-0.123 -0.044,-0.226 -0.079,-0.309 -0.035,-0.084 -0.077,-0.145 -0.126,-0.185 -0.049,-0.039 -0.108,-0.06 -0.179,-0.06 -0.124,0 -0.295,0.086 -0.517,0.258 -0.221,0.171 -0.506,0.36 -0.855,0.567 -0.348,0.206 -0.773,0.395 -1.272,0.567 -0.499,0.171 -1.098,0.257 -1.796,0.257 -0.76,0 -1.451,-0.152 -2.074,-0.455 C -7.614,12.123 -8.146,11.677 -8.588,11.088 -9.03,10.499 -9.372,9.78 -9.615,8.933 -9.858,8.084 -9.98,7.115 -9.98,6.025 c 0,-1.081 0.117,-2.037 0.351,-2.867 0.234,-0.831 0.57,-1.525 1.008,-2.083 0.436,-0.558 0.974,-0.98 1.61,-1.265 0.636,-0.287 1.356,-0.429 2.16,-0.429 0.68,0 1.275,0.083 1.783,0.25 0.507,0.167 0.941,0.353 1.298,0.56 0.358,0.206 0.652,0.394 0.882,0.561 0.23,0.167 0.41,0.25 0.543,0.25 0.062,0 0.116,-0.013 0.159,-0.039 0.044,-0.026 0.08,-0.077 0.107,-0.151 C -0.053,0.736 -0.033,0.633 -0.02,0.501 -0.007,0.369 0,0.202 0,0"
             style="fill:#1fa1e2;fill-opacity:1;fill-rule:nonzero;stroke:none"
             id="path128"
             inkscape:connector-curvature="0" /></g><g
           id="g130"
           transform="translate(389.2793,387.2686)"><path
             d="m 0,0 c 0,-0.158 -0.009,-0.296 -0.026,-0.415 -0.018,-0.118 -0.049,-0.218 -0.093,-0.297 -0.044,-0.079 -0.094,-0.136 -0.152,-0.171 -0.056,-0.035 -0.121,-0.053 -0.19,-0.053 h -8.187 c -0.203,0 -0.394,0.068 -0.574,0.205 -0.18,0.135 -0.27,0.376 -0.27,0.718 v 15.214 c 0,0.343 0.09,0.582 0.27,0.719 0.18,0.136 0.371,0.204 0.574,0.204 h 8.094 c 0.071,0 0.134,-0.018 0.192,-0.053 0.056,-0.035 0.102,-0.092 0.137,-0.172 0.036,-0.079 0.065,-0.177 0.086,-0.295 0.023,-0.12 0.034,-0.267 0.034,-0.443 0,-0.158 -0.011,-0.296 -0.034,-0.415 -0.021,-0.118 -0.05,-0.216 -0.086,-0.29 -0.035,-0.075 -0.081,-0.13 -0.137,-0.165 -0.058,-0.035 -0.121,-0.053 -0.192,-0.053 H -7.225 V 8.886 h 5.722 c 0.07,0 0.134,-0.02 0.191,-0.059 0.057,-0.04 0.106,-0.095 0.145,-0.165 0.04,-0.07 0.068,-0.167 0.086,-0.29 0.018,-0.123 0.026,-0.268 0.026,-0.435 0,-0.159 -0.008,-0.294 -0.026,-0.409 C -1.099,7.414 -1.127,7.321 -1.167,7.251 -1.206,7.181 -1.255,7.13 -1.312,7.1 -1.369,7.068 -1.433,7.054 -1.503,7.054 H -7.225 V 0.949 h 6.764 c 0.069,0 0.134,-0.017 0.19,-0.053 0.058,-0.035 0.108,-0.089 0.152,-0.164 0.044,-0.075 0.075,-0.171 0.093,-0.29 C -0.009,0.323 0,0.176 0,0"
             style="fill:#1fa1e2;fill-opacity:1;fill-rule:nonzero;stroke:none"
             id="path132"
             inkscape:connector-curvature="0" /></g><g
           id="g134"
           transform="translate(406.5938,391.1182)"><path
             d="m 0,0 c 0,-0.8 -0.146,-1.512 -0.441,-2.136 -0.294,-0.624 -0.704,-1.153 -1.226,-1.588 -0.523,-0.435 -1.139,-0.762 -1.846,-0.982 -0.708,-0.22 -1.469,-0.33 -2.288,-0.33 -0.571,0 -1.1,0.049 -1.588,0.145 -0.488,0.097 -0.923,0.215 -1.305,0.356 -0.382,0.14 -0.703,0.286 -0.962,0.435 -0.26,0.15 -0.44,0.277 -0.541,0.382 -0.101,0.106 -0.176,0.239 -0.224,0.403 -0.049,0.162 -0.073,0.379 -0.073,0.652 0,0.193 0.009,0.353 0.027,0.481 0.017,0.127 0.043,0.231 0.078,0.31 0.035,0.079 0.08,0.134 0.133,0.165 0.053,0.03 0.113,0.046 0.184,0.046 0.123,0 0.297,-0.074 0.521,-0.224 0.224,-0.149 0.512,-0.312 0.863,-0.488 0.352,-0.176 0.776,-0.341 1.273,-0.494 0.496,-0.154 1.069,-0.231 1.72,-0.231 0.492,0 0.943,0.066 1.351,0.198 0.409,0.131 0.761,0.318 1.055,0.56 0.295,0.241 0.521,0.538 0.68,0.89 0.158,0.351 0.236,0.752 0.236,1.2 0,0.483 -0.109,0.896 -0.329,1.239 -0.22,0.343 -0.51,0.644 -0.87,0.904 -0.361,0.258 -0.772,0.496 -1.233,0.711 -0.462,0.215 -0.934,0.435 -1.418,0.66 -0.483,0.223 -0.953,0.471 -1.41,0.744 C -8.09,4.28 -8.499,4.602 -8.859,4.971 -9.22,5.34 -9.512,5.772 -9.735,6.27 c -0.225,0.496 -0.337,1.091 -0.337,1.786 0,0.712 0.13,1.346 0.389,1.905 0.259,0.558 0.62,1.025 1.081,1.403 0.461,0.378 1.011,0.666 1.648,0.865 0.638,0.197 1.325,0.295 2.063,0.295 0.378,0 0.758,-0.032 1.141,-0.098 0.382,-0.066 0.742,-0.155 1.081,-0.264 0.338,-0.11 0.64,-0.233 0.903,-0.369 0.264,-0.137 0.437,-0.246 0.521,-0.329 0.083,-0.084 0.138,-0.151 0.165,-0.198 0.025,-0.049 0.048,-0.111 0.065,-0.185 0.018,-0.075 0.031,-0.165 0.04,-0.27 0.008,-0.106 0.013,-0.242 0.013,-0.409 0,-0.158 -0.007,-0.298 -0.019,-0.422 C -0.995,9.857 -1.015,9.754 -1.041,9.671 -1.067,9.587 -1.104,9.525 -1.153,9.486 -1.201,9.446 -1.257,9.427 -1.318,9.427 c -0.097,0 -0.248,0.061 -0.454,0.184 -0.207,0.123 -0.46,0.261 -0.759,0.415 -0.299,0.154 -0.653,0.294 -1.061,0.422 -0.409,0.127 -0.868,0.192 -1.378,0.192 -0.474,0 -0.887,-0.065 -1.239,-0.192 C -6.561,10.32 -6.851,10.151 -7.079,9.94 -7.308,9.729 -7.479,9.479 -7.594,9.189 -7.708,8.899 -7.765,8.592 -7.765,8.267 c 0,-0.475 0.11,-0.884 0.329,-1.227 0.22,-0.343 0.513,-0.645 0.877,-0.909 C -6.193,5.867 -5.778,5.625 -5.313,5.405 -4.847,5.186 -4.372,4.964 -3.889,4.74 -3.405,4.516 -2.931,4.27 -2.465,4.002 -1.999,3.733 -1.584,3.417 -1.219,3.053 -0.854,2.688 -0.56,2.257 -0.336,1.761 -0.111,1.264 0,0.677 0,0"
             style="fill:#1fa1e2;fill-opacity:1;fill-rule:nonzero;stroke:none"
             id="path136"
             inkscape:connector-curvature="0" /></g><g
           id="g138"
           transform="translate(428.4365,400.2285)"><path
             d="m 0,0 c 0,-0.237 0.033,-0.479 0.1,-0.726 0.065,-0.246 0.167,-0.503 0.302,-0.77 0.137,-0.269 0.304,-0.557 0.501,-0.864 0.199,-0.308 0.433,-0.651 0.706,-1.029 0.641,0.361 1.18,0.693 1.615,0.996 0.435,0.303 0.784,0.595 1.047,0.876 0.264,0.282 0.456,0.563 0.575,0.844 0.118,0.281 0.177,0.58 0.177,0.897 0,0.255 -0.045,0.499 -0.138,0.732 C 4.793,1.188 4.646,1.395 4.443,1.575 4.241,1.755 3.986,1.898 3.679,2.004 3.371,2.109 3.002,2.162 2.571,2.162 2.105,2.162 1.712,2.103 1.392,1.984 1.07,1.865 0.807,1.707 0.601,1.51 0.394,1.312 0.242,1.081 0.146,0.817 0.049,0.554 0,0.281 0,0 m -1.529,-9.176 c 0,-0.457 0.077,-0.875 0.231,-1.253 0.153,-0.378 0.38,-0.705 0.679,-0.981 0.299,-0.278 0.672,-0.493 1.121,-0.647 0.447,-0.154 0.966,-0.23 1.555,-0.23 0.36,0 0.713,0.037 1.054,0.112 0.344,0.074 0.671,0.175 0.983,0.303 0.312,0.127 0.608,0.281 0.89,0.462 0.281,0.18 0.54,0.371 0.778,0.573 -0.457,0.396 -0.912,0.806 -1.365,1.233 -0.453,0.425 -0.889,0.854 -1.311,1.285 -0.422,0.43 -0.829,0.859 -1.22,1.286 -0.391,0.426 -0.75,0.841 -1.075,1.245 -0.439,-0.281 -0.806,-0.56 -1.101,-0.837 -0.294,-0.276 -0.531,-0.554 -0.711,-0.83 -0.18,-0.277 -0.31,-0.557 -0.389,-0.838 -0.079,-0.281 -0.119,-0.575 -0.119,-0.883 M -3.889,-9.4 c 0,0.483 0.067,0.943 0.198,1.378 0.132,0.435 0.338,0.857 0.62,1.265 0.281,0.409 0.648,0.805 1.1,1.187 0.453,0.382 1,0.766 1.642,1.153 -0.352,0.475 -0.652,0.905 -0.903,1.292 -0.25,0.387 -0.457,0.747 -0.62,1.081 -0.163,0.334 -0.279,0.653 -0.349,0.956 -0.07,0.304 -0.106,0.609 -0.106,0.916 0,0.545 0.092,1.066 0.278,1.563 0.183,0.496 0.48,0.936 0.889,1.318 0.409,0.383 0.934,0.686 1.576,0.91 0.641,0.224 1.418,0.336 2.334,0.336 0.772,0 1.443,-0.084 2.009,-0.251 C 5.347,3.537 5.816,3.3 6.19,2.992 6.563,2.685 6.845,2.313 7.034,1.879 7.223,1.443 7.317,0.958 7.317,0.422 7.317,-0.097 7.233,-0.571 7.066,-1.002 6.899,-1.433 6.632,-1.851 6.263,-2.255 5.894,-2.659 5.421,-3.062 4.846,-3.461 4.27,-3.861 3.573,-4.28 2.756,-4.72 3.055,-5.08 3.38,-5.456 3.731,-5.847 c 0.352,-0.391 0.719,-0.785 1.101,-1.18 0.383,-0.396 0.773,-0.785 1.174,-1.166 0.399,-0.383 0.793,-0.75 1.18,-1.102 0.175,0.237 0.334,0.508 0.474,0.812 0.141,0.302 0.264,0.623 0.369,0.962 0.106,0.337 0.185,0.683 0.238,1.035 0.052,0.351 0.079,0.707 0.079,1.067 v 0.475 c 0,0.088 0.015,0.16 0.046,0.217 0.031,0.057 0.081,0.106 0.151,0.146 0.07,0.039 0.174,0.067 0.311,0.085 0.135,0.017 0.313,0.026 0.533,0.026 0.193,0 0.358,-0.004 0.495,-0.012 0.136,-0.009 0.248,-0.03 0.336,-0.06 0.088,-0.031 0.151,-0.079 0.191,-0.145 0.039,-0.066 0.06,-0.156 0.06,-0.27 v -0.33 c 0,-0.492 -0.042,-0.976 -0.126,-1.45 C 10.26,-7.212 10.146,-7.676 10,-8.128 9.855,-8.581 9.675,-9.014 9.46,-9.427 9.244,-9.84 9.005,-10.222 8.741,-10.573 c 0.396,-0.317 0.74,-0.58 1.035,-0.791 0.294,-0.211 0.545,-0.383 0.751,-0.515 0.207,-0.132 0.378,-0.224 0.515,-0.276 0.136,-0.053 0.248,-0.079 0.336,-0.079 0.088,0 0.171,0.004 0.251,0.012 0.078,0.009 0.142,-0.004 0.19,-0.039 0.049,-0.035 0.086,-0.105 0.113,-0.211 0.026,-0.105 0.039,-0.268 0.039,-0.488 0,-0.22 -0.004,-0.395 -0.013,-0.527 -0.009,-0.132 -0.024,-0.231 -0.046,-0.296 -0.022,-0.067 -0.059,-0.121 -0.112,-0.165 -0.053,-0.044 -0.15,-0.084 -0.29,-0.119 -0.141,-0.036 -0.325,-0.053 -0.554,-0.053 -0.176,0 -0.369,0.031 -0.58,0.093 -0.211,0.061 -0.457,0.169 -0.738,0.323 -0.282,0.153 -0.609,0.362 -0.983,0.626 -0.373,0.264 -0.81,0.598 -1.311,1.002 -0.369,-0.299 -0.758,-0.576 -1.167,-0.831 -0.408,-0.255 -0.844,-0.473 -1.305,-0.653 -0.462,-0.18 -0.945,-0.321 -1.45,-0.421 -0.506,-0.101 -1.053,-0.152 -1.642,-0.152 -0.553,0 -1.079,0.048 -1.575,0.145 -0.497,0.096 -0.956,0.235 -1.378,0.416 -0.422,0.179 -0.8,0.406 -1.134,0.678 -0.334,0.273 -0.617,0.582 -0.85,0.93 -0.233,0.347 -0.413,0.735 -0.54,1.166 -0.128,0.431 -0.192,0.897 -0.192,1.398"
             style="fill:#1fa1e2;fill-opacity:1;fill-rule:nonzero;stroke:none"
             id="path140"
             inkscape:connector-curvature="0" /></g></g></g></g></svg>