<?xml version="1.0" encoding="iso-8859-1"?>
<!-- Generator: Adobe Illustrator 19.0.0, SVG Export Plug-In . SVG Version: 6.00 Build 0)  -->
<svg xmlns="http://www.w3.org/2000/svg" xmlns:xlink="http://www.w3.org/1999/xlink" version="1.1" id="Layer_1" x="0px" y="0px" viewBox="0 0 512 512" style="enable-background:new 0 0 512 512;" xml:space="preserve" width="512" height="512">
<g>
	<path d="M502,0H117.768H110H10C4.478,0,0,4.478,0,10v492c0,5.522,4.478,10,10,10h492c5.522,0,10-4.478,10-10V10   C512,4.478,507.522,0,502,0z M20,20h83.82l10,20H90c-5.51,0-10,4.49-10,10s4.49,10,10,10h33.819l0.653,1.306   c3.54,7.08,8.148,13.356,13.566,18.694H20V20z M492,492H20V100h472V492z M492,80H187.082c-19.061,0-36.197-10.591-44.722-27.639   L126.181,20H492V80z"/>
	<path d="M462,60c5.52,0,10-4.48,10-10c0-5.521-4.48-10-10-10c-5.521,0-10,4.479-10,10C452,55.52,456.479,60,462,60z"/>
	<path d="M382,60c5.52,0,10-4.48,10-10c0-5.521-4.48-10-10-10c-5.521,0-10,4.479-10,10C372,55.52,376.479,60,382,60z"/>
	<path d="M422,60c5.52,0,10-4.48,10-10c0-5.521-4.48-10-10-10c-5.521,0-10,4.479-10,10C412,55.52,416.479,60,422,60z"/>
	<path d="M50,40c-5.521,0-10,4.49-10,10s4.479,10,10,10c5.51,0,10-4.49,10-10S55.51,40,50,40z"/>
	<path d="M150,252c0-5.522-4.478-10-10-10H60c-5.522,0-10,4.478-10,10v80c0,5.522,4.478,10,10,10h80c5.522,0,10-4.478,10-10v-30   h35.289L236,352.711V412c0,5.522,4.478,10,10,10h96v30c0,5.522,4.478,10,10,10h80c5.522,0,10-4.478,10-10v-80   c0-5.522-4.478-10-10-10h-80c-5.522,0-10,4.478-10,10v30h-86v-49.289L306.711,302H342v30c0,5.522,4.478,10,10,10h80   c5.522,0,10-4.478,10-10v-30h20c5.522,0,10-4.478,10-10s-4.478-10-10-10h-20v-30c0-5.522-4.478-10-10-10h-80   c-5.522,0-10,4.478-10,10v30h-35.289L256,231.289V182h87.006c4.646,22.795,24.847,40,48.994,40c27.57,0,50-22.43,50-50   s-22.43-50-50-50c-24.146,0-44.348,17.205-48.994,40H246c-5.522,0-10,4.478-10,10v59.289L185.289,282H150V252z M130,322H70v-60h60   V322z M362,382h60v60h-60V382z M362,262h60v60h-60V262z M392,142c16.542,0,30,13.458,30,30s-13.458,30-30,30s-30-13.458-30-30   S375.458,142,392,142z M246,249.574L288.426,292L246,334.426L203.574,292L246,249.574z"/>
</g>















</svg>
