<svg height="480pt" viewBox="0 0 480 480" width="480pt" xmlns="http://www.w3.org/2000/svg"><path d="m56 480h304c30.914062-.035156 55.964844-25.085938 56-56v-8c.007812-13.972656-1.386719-27.90625-4.160156-41.601562-4.058594-20.015626-11.070313-39.320313-20.800782-57.277344l-14.0625 7.613281c7.441407 13.816406 13.144532 28.5 16.984376 43.714844-24.765626 2.988281-44.835938 21.503906-49.800782 45.949219l15.679688 3.136718c3.722656-18.191406 19.003906-31.746094 37.511718-33.261718 1.753907 10.484374 2.636719 21.097656 2.648438 31.726562v8c-.027344 22.082031-17.917969 39.972656-40 40h-72.640625c-3.972656-27.527344-27.546875-47.96875-55.359375-48v16c19 .023438 35.371094 13.386719 39.199219 32h-63.199219c-22.089844 0-40-17.910156-40-40s17.910156-40 40-40h72.320312c1.042969 10.109375 4.5 19.824219 10.078126 28.320312l13.464843-8.640624c-9.636719-12.84375-10.394531-30.285157-1.910156-43.917969l-13.167969-9.089844c-3.59375 5.238281-6.132812 11.125-7.488281 17.328125h-41.9375c-3.972656-27.527344-27.546875-47.96875-55.359375-48v16c19 .023438 35.371094 13.386719 39.199219 32h-15.199219c-18.8125.015625-36.359375 9.476562-46.710938 25.183594-15.839843-1.941406-30.039062-10.707032-38.875-24l-3.757812-5.648438-13.3125 8.878906 3.761719 5.601563c10.453125 15.652344 26.734375 26.476563 45.214843 30.0625-5.949218 19.898437-.339843 41.453125 14.558594 55.921875h-112.878906c-19.210938-.027344-35.6875-13.707031-39.246094-32.585938 13.488282-1.417968 26.417969-6.144531 37.644532-13.757812 14.773437 14.410156 34.613281 22.433594 55.25 22.34375.863281 0 1.734374 0 2.609374-.039062l-.515624-16c-16.625.664062-32.824219-5.347657-44.988282-16.695313 3.738282-3.722656 7.117188-7.792969 10.085938-12.152344l4.488281-6.722656-13.328125-8.871094-4.480469 6.71875c-10.792969 16.234375-28.164062 26.914063-47.519531 29.226563.089844-30.925782 7.664062-61.371094 22.078125-88.730469 13.464844-3.285156 27.542969 2.1875 35.25 13.707031l13.3125-8.882812c-8.679687-12.941406-23-20.988282-38.570313-21.671875 11.394532-17.15625 25.460938-32.378907 41.664063-45.085938 4.679687 22.863281 18.601563 40.664063 36.089844 45.71875-3.835938 10.128907-5.8125 20.871094-5.824219 31.703125h16c-.054688-19.617187 7.742188-38.445312 21.65625-52.277344l4.289062-4.289062-11.3125-11.3125-4.289062 4.289062c-5.117188 5.152344-9.589844 10.90625-13.328125 17.136719-14.566406-2.136719-26.617187-19.65625-28.671875-41.257812 15.4375-9.996094 32.242188-17.699219 49.886719-22.871094l-4.460938-15.367187c-20.699219 6.015624-40.328125 15.238281-58.167969 27.335937-57.265624 38.6875-91.585937 103.28125-91.601562 172.390625v8c.0351562 30.914062 25.085938 55.964844 56 56zm0 0"/><path d="m160 208h30.511719c1.980469 6.058594 4.414062 11.957031 7.28125 17.648438l-21.554688 21.550781c-6.25 6.25-6.25 16.382812 0 22.632812l33.9375 33.9375c6.25 6.25 16.382813 6.25 22.632813 0l21.542968-21.554687c2.121094 1.074218 4.28125 2.082031 6.457032 3.03125 3.632812 1.601562 7.375 3 11.199218 4.257812v30.496094c0 8.835938 7.164063 16 16 16h48c8.835938 0 16-7.164062 16-16v-30.511719c6.058594-1.980469 11.957032-4.414062 17.648438-7.28125l21.542969 21.554688c6.25 6.25 16.382812 6.25 22.632812 0l33.945313-33.9375c6.25-6.25 6.25-16.382813 0-22.632813l-21.5625-21.542968c2.867187-5.691407 5.296875-11.589844 7.273437-17.648438h30.511719c8.835938 0 16-7.164062 16-16v-48c0-8.835938-7.164062-16-16-16h-30.511719c-1.980469-6.058594-4.414062-11.957031-7.28125-17.648438l21.5625-21.550781c6.246094-6.25 6.246094-16.375 0-22.625l-33.945312-33.945312c-6.25-6.25-16.382813-6.25-22.632813 0l-21.542968 21.601562c-5.691407-2.882812-11.589844-5.328125-17.648438-7.320312v-30.511719c0-8.835938-7.164062-16-16-16h-48c-8.835938 0-16 7.164062-16 16v30.511719c-3.816406 1.25-7.558594 2.671875-11.199219 4.25-2.175781.949219-4.335937 1.957031-6.457031 3.03125l-21.542969-21.5625c-6.25-6.246094-16.375-6.246094-22.625 0l-33.9375 33.945312c-6.25 6.25-6.25 16.382813 0 22.632813l21.554688 21.542968c-1.074219 2.121094-2.082031 4.28125-3.03125 6.457032-1.601563 3.632812-3 7.375-4.257813 11.199218h-30.503906c-8.835938 0-16 7.164063-16 16v48c.003906 8.832032 7.167969 15.992188 16 15.992188zm0-64h36.449219c3.597656 0 6.753906-2.402344 7.710937-5.871094 1.40625-5.097656 3.167969-10.089844 5.273438-14.9375 1.539062-3.539062 3.265625-6.992187 5.167968-10.351562 1.769532-3.128906 1.238282-7.058594-1.304687-9.601563l-25.746094-25.75 33.945313-33.945312 25.742187 25.753906c2.542969 2.542969 6.472657 3.074219 9.601563 1.304687 3.359375-1.902343 6.8125-3.628906 10.351562-5.167968 4.847656-2.105469 9.839844-3.867188 14.9375-5.273438 3.46875-.957031 5.871094-4.113281 5.871094-7.710937v-36.449219h48v36.449219c0 3.59375 2.398438 6.75 5.863281 7.710937 8.828125 2.414063 17.324219 5.910156 25.296875 10.398438 3.128906 1.773437 7.058594 1.242187 9.601563-1.300782l25.75-25.753906 33.945312 33.953125-25.753906 25.742188c-2.542969 2.542969-3.074219 6.472656-1.304687 9.601562 4.492187 7.972657 7.984374 16.46875 10.402343 25.296875.960938 3.464844 4.113281 5.863282 7.710938 5.863282h36.488281v48h-36.449219c-3.59375-.003907-6.75 2.398437-7.710937 5.863281-2.414063 8.828125-5.910156 17.320312-10.398438 25.296875-1.773437 3.128906-1.242187 7.054687 1.300782 9.597656l25.753906 25.753906-33.953125 33.933594-25.742188-25.703125c-2.542969-2.542969-6.472656-3.074219-9.601562-1.304687-7.972657 4.492187-16.46875 7.984374-25.296875 10.402343-3.464844.960938-5.863282 4.113281-5.863282 7.710938v36.488281h-48.039062v-36.449219c0-3.597656-2.402344-6.753906-5.871094-7.710937-5.097656-1.40625-10.085937-3.167969-14.9375-5.273438-3.539062-1.539062-6.992187-3.265625-10.351562-5.167968-1.203125-.683594-2.5625-1.042969-3.945313-1.039063-2.121093 0-4.15625.84375-5.65625 2.34375l-25.75 25.746094-33.9375-33.945313 25.746094-25.703125c2.542969-2.542969 3.074219-6.472656 1.304687-9.601562-4.492187-7.972657-7.984374-16.46875-10.402343-25.296875-.949219-3.496094-4.128907-5.917969-7.75-5.902344h-36.449219zm0 0"/><path d="m312 256c48.601562 0 88-39.398438 88-88s-39.398438-88-88-88-88 39.398438-88 88c.058594 48.578125 39.421875 87.941406 88 88zm0-160c39.765625 0 72 32.234375 72 72s-32.234375 72-72 72-72-32.234375-72-72c.046875-39.746094 32.253906-71.953125 72-72zm0 0"/><path d="m312 208c22.089844 0 40-17.910156 40-40s-17.910156-40-40-40-40 17.910156-40 40c.027344 22.082031 17.917969 39.972656 40 40zm0-64c13.253906 0 24 10.746094 24 24s-10.746094 24-24 24-24-10.746094-24-24 10.746094-24 24-24zm0 0"/></svg>