<?xml version="1.0" encoding="UTF-8" standalone="no"?>
<!-- Generator: Adobe Illustrator 19.0.0, SVG Export Plug-In . SVG Version: 6.00 Build 0)  -->

<svg
   xmlns:dc="http://purl.org/dc/elements/1.1/"
   xmlns:cc="http://creativecommons.org/ns#"
   xmlns:rdf="http://www.w3.org/1999/02/22-rdf-syntax-ns#"
   xmlns:svg="http://www.w3.org/2000/svg"
   xmlns="http://www.w3.org/2000/svg"
   xmlns:sodipodi="http://sodipodi.sourceforge.net/DTD/sodipodi-0.dtd"
   xmlns:inkscape="http://www.inkscape.org/namespaces/inkscape"
   version="1.1"
   id="Capa_1"
   x="0px"
   y="0px"
   viewBox="0 0 55 55"
   style="enable-background:new 0 0 55 55;"
   xml:space="preserve"
   sodipodi:docname="cadence-white.svg"
   inkscape:version="0.92.2 (5c3e80d, 2017-08-06)"><metadata
     id="metadata233"><rdf:RDF><cc:Work
         rdf:about=""><dc:format>image/svg+xml</dc:format><dc:type
           rdf:resource="http://purl.org/dc/dcmitype/StillImage" /><dc:title></dc:title></cc:Work></rdf:RDF></metadata><defs
     id="defs231" /><sodipodi:namedview
     pagecolor="#ffffff"
     bordercolor="#666666"
     borderopacity="1"
     objecttolerance="10"
     gridtolerance="10"
     guidetolerance="10"
     inkscape:pageopacity="0"
     inkscape:pageshadow="2"
     inkscape:window-width="1920"
     inkscape:window-height="986"
     id="namedview229"
     showgrid="false"
     inkscape:zoom="2.4500001"
     inkscape:cx="-183.86557"
     inkscape:cy="54.956839"
     inkscape:window-x="-11"
     inkscape:window-y="-11"
     inkscape:window-maximized="1"
     inkscape:current-layer="Capa_1" /><g
     id="g198" /><g
     id="g200" /><g
     id="g202" /><g
     id="g204" /><g
     id="g206" /><g
     id="g208" /><g
     id="g210" /><g
     id="g212" /><g
     id="g214" /><g
     id="g216" /><g
     id="g218" /><g
     id="g220" /><g
     id="g222" /><g
     id="g224" /><g
     id="g226" /><g
     style="overflow:hidden;fill:#ffffff;fill-opacity:1"
     id="g850"
     transform="matrix(0.59383991,0,0,0.59383991,-1.0043157,-1.3984177)"><path
       id="path834-9"
       d="m 46,30.1 v 4 c 0.7,0 1.3,-0.1 2,-0.1 0.7,0 1.3,0 2,0.1 v -4 c 3.9,0.2 7.6,1 11,2.3 L 59.5,36 c 1.3,0.5 2.5,1 3.7,1.6 l 1.5,-3.7 c 1.9,0.9 3.6,2 5.3,3.2 l 4.3,-4.3 C 67,27.3 57.9,24 48,24 23.7,24 4,43.7 4,68 v 4 h 6 v -4 c 0,-4.1 0.7,-8.1 1.9,-11.8 l 3.7,1.5 C 16,56.4 16.5,55.2 17,54 l -3.7,-1.5 c 1.5,-3.4 3.6,-6.6 6,-9.3 l 2.8,2.8 c 0.9,-1 1.8,-2 2.8,-2.9 l -2.8,-2.8 c 2.7,-2.5 5.8,-4.7 9.2,-6.4 l 1.5,3.7 C 34,37 35.2,36.5 36.5,36 L 35,32.3 c 3.4,-1.3 7.1,-2 11,-2.2 z"
       inkscape:connector-curvature="0"
       style="fill:#ffffff;fill-opacity:1;stroke:none;stroke-width:1.00005996;stroke-linecap:butt;stroke-dasharray:none;stroke-dashoffset:1" /><path
       id="path836-5"
       d="m 84.1,42.8 -4.3,4.3 c 1.1,1.7 2.1,3.5 2.9,5.3 L 79,54 c 0.5,1.2 1,2.5 1.4,3.7 l 3.7,-1.5 C 85.3,59.9 86,63.9 86,68 v 4 h 6 V 68 C 92,58.6 89.1,50 84.1,42.8 Z"
       inkscape:connector-curvature="0"
       style="fill:#ffffff;fill-opacity:1;stroke:none;stroke-width:1.00005996;stroke-linecap:butt;stroke-dasharray:none;stroke-dashoffset:1" /><path
       id="path838-0"
       d="m 45.2,66.2 c -0.2,0.1 -0.3,0.3 -0.5,0.5 -1.4,1.7 -1.2,4.2 0.5,5.7 1.7,1.4 4.2,1.2 5.7,-0.5 L 82,35 Z"
       inkscape:connector-curvature="0"
       style="fill:#ffffff;fill-opacity:1;stroke:none;stroke-width:1.00005996;stroke-linecap:butt;stroke-dasharray:none;stroke-dashoffset:1" /></g></svg>