<?xml version="1.0" encoding="UTF-8" standalone="no"?>
<!-- Generator: Adobe Illustrator 19.0.0, SVG Export Plug-In . SVG Version: 6.00 Build 0)  -->

<svg
   xmlns:dc="http://purl.org/dc/elements/1.1/"
   xmlns:cc="http://creativecommons.org/ns#"
   xmlns:rdf="http://www.w3.org/1999/02/22-rdf-syntax-ns#"
   xmlns:svg="http://www.w3.org/2000/svg"
   xmlns="http://www.w3.org/2000/svg"
   xmlns:sodipodi="http://sodipodi.sourceforge.net/DTD/sodipodi-0.dtd"
   xmlns:inkscape="http://www.inkscape.org/namespaces/inkscape"
   version="1.1"
   id="Capa_1"
   x="0px"
   y="0px"
   viewBox="0 0 55 55"
   style="enable-background:new 0 0 55 55;"
   xml:space="preserve"
   sodipodi:docname="dispo-white.svg"
   inkscape:version="0.92.2 (5c3e80d, 2017-08-06)"><metadata
     id="metadata233"><rdf:RDF><cc:Work
         rdf:about=""><dc:format>image/svg+xml</dc:format><dc:type
           rdf:resource="http://purl.org/dc/dcmitype/StillImage" /><dc:title></dc:title></cc:Work></rdf:RDF></metadata><defs
     id="defs231" /><sodipodi:namedview
     pagecolor="#ffffff"
     bordercolor="#666666"
     borderopacity="1"
     objecttolerance="10"
     gridtolerance="10"
     guidetolerance="10"
     inkscape:pageopacity="0"
     inkscape:pageshadow="2"
     inkscape:window-width="1920"
     inkscape:window-height="986"
     id="namedview229"
     showgrid="false"
     inkscape:zoom="6.9296466"
     inkscape:cx="-42.554223"
     inkscape:cy="33.674051"
     inkscape:window-x="-11"
     inkscape:window-y="-11"
     inkscape:window-maximized="1"
     inkscape:current-layer="Capa_1" /><g
     id="g198" /><g
     id="g200" /><g
     id="g202" /><g
     id="g204" /><g
     id="g206" /><g
     id="g208" /><g
     id="g210" /><g
     id="g212" /><g
     id="g214" /><g
     id="g216" /><g
     id="g218" /><g
     id="g220" /><g
     id="g222" /><g
     id="g224" /><g
     id="g226" /><g
     id="g840"
     transform="matrix(0.76034125,0,0,0.70117799,-8.99638,-6.1565435)"
     style="fill:#ffffff;fill-opacity:1;stroke:none"><path
       style="fill:#ffffff;fill-opacity:1;stroke:none;stroke-width:1.00005996;stroke-linecap:butt;stroke-dasharray:none;stroke-dashoffset:1"
       inkscape:connector-curvature="0"
       d="m 29,26 c 1.7,0 3,-1.3 3,-3 v -6 c 0,-1.7 -1.3,-3 -3,-3 -1.7,0 -3,1.3 -3,3 v 6 c 0,1.7 1.3,3 3,3 z"
       id="path832" /><path
       style="fill:#ffffff;fill-opacity:1;stroke:none;stroke-width:1.00005996;stroke-linecap:butt;stroke-dasharray:none;stroke-dashoffset:1"
       inkscape:connector-curvature="0"
       d="m 20,68 h 16 v 8 H 20 Z m 0,-12 h 16 v 8 H 20 Z m 0,-12 h 16 v 8 H 20 Z m 36,0 v 8 H 40 v -8 z m 20,0 v 8 H 60 v -8 z m 0,20 H 60 v -8 h 16 z m 0,12 H 60 V 68 H 76 Z M 40,64 v -8 h 16 v 8 z m 0,12 v -8 h 16 v 8 z M 14,82 H 82 V 38 H 14 Z"
       id="path834" /><path
       style="fill:#ffffff;fill-opacity:1;stroke:none;stroke-width:1.00005996;stroke-linecap:butt;stroke-dasharray:none;stroke-dashoffset:1"
       inkscape:connector-curvature="0"
       d="m 67,26 c 1.7,0 3,-1.3 3,-3 v -6 c 0,-1.7 -1.3,-3 -3,-3 -1.7,0 -3,1.3 -3,3 v 6 c 0,1.7 1.3,3 3,3 z"
       id="path836" /><path
       style="fill:#ffffff;fill-opacity:1;stroke:none;stroke-width:1.00005996;stroke-linecap:butt;stroke-dasharray:none;stroke-dashoffset:1"
       inkscape:connector-curvature="0"
       d="m 74,20 v 3 c 0,3.9 -3.1,7 -7,7 -3.9,0 -7,-3.1 -7,-7 V 20 H 36 v 3 c 0,3.9 -3.1,7 -7,7 -3.9,0 -7,-3.1 -7,-7 V 20 H 14 V 34 H 82 V 20 Z"
       id="path838" /></g></svg>