<?xml version="1.0" encoding="UTF-8" standalone="no"?>
<!-- Generator: Adobe Illustrator 19.0.0, SVG Export Plug-In . SVG Version: 6.00 Build 0)  -->

<svg
   xmlns:dc="http://purl.org/dc/elements/1.1/"
   xmlns:cc="http://creativecommons.org/ns#"
   xmlns:rdf="http://www.w3.org/1999/02/22-rdf-syntax-ns#"
   xmlns:svg="http://www.w3.org/2000/svg"
   xmlns="http://www.w3.org/2000/svg"
   xmlns:sodipodi="http://sodipodi.sourceforge.net/DTD/sodipodi-0.dtd"
   xmlns:inkscape="http://www.inkscape.org/namespaces/inkscape"
   version="1.1"
   id="Capa_1"
   x="0px"
   y="0px"
   viewBox="0 0 55 55"
   style="enable-background:new 0 0 55 55;"
   xml:space="preserve"
   sodipodi:docname="flexi-white.svg"
   inkscape:version="0.92.2 (5c3e80d, 2017-08-06)"><metadata
     id="metadata233"><rdf:RDF><cc:Work
         rdf:about=""><dc:format>image/svg+xml</dc:format><dc:type
           rdf:resource="http://purl.org/dc/dcmitype/StillImage" /><dc:title></dc:title></cc:Work></rdf:RDF></metadata><defs
     id="defs231" /><sodipodi:namedview
     pagecolor="#ffffff"
     bordercolor="#666666"
     borderopacity="1"
     objecttolerance="10"
     gridtolerance="10"
     guidetolerance="10"
     inkscape:pageopacity="0"
     inkscape:pageshadow="2"
     inkscape:window-width="1920"
     inkscape:window-height="986"
     id="namedview229"
     showgrid="false"
     inkscape:zoom="3.4648233"
     inkscape:cx="-47.106554"
     inkscape:cy="43.67026"
     inkscape:window-x="-11"
     inkscape:window-y="-11"
     inkscape:window-maximized="1"
     inkscape:current-layer="Capa_1" /><g
     id="g198" /><g
     id="g200" /><g
     id="g202" /><g
     id="g204" /><g
     id="g206" /><g
     id="g208" /><g
     id="g210" /><g
     id="g212" /><g
     id="g214" /><g
     id="g216" /><g
     id="g218" /><g
     id="g220" /><g
     id="g222" /><g
     id="g224" /><g
     id="g226" /><g
     style="overflow:hidden;fill:#ffffff"
     id="g853"
     transform="matrix(0.71562933,0,0,0.71562933,-7.4584928,-6.8502078)"><path
       id="path834-8"
       d="M 76,76 H 26 V 20 H 76 Z M 20,14 v 6 h -1.3 c -1.6,0.1 -2.7,1.4 -2.7,3 -0.1,1.6 1.1,2.9 2.7,3 H 20 v 4 h -1.3 c -1.7,0 -3,1.3 -3,3 0,1.7 1.3,3 3,3 H 20 v 4 h -1.3 c -1.7,0 -3,1.3 -3,3 0,1.7 1.3,3 3,3 H 20 v 4 h -1.3 c -1.7,0 -3,1.3 -3,3 0,1.7 1.3,3 3,3 H 20 v 4 h -1.3 c -1.7,0 -3,1.3 -3,3 0,1.7 1.3,3 3,3 H 20 v 4 h -1.3 c -1.7,0 -3,1.3 -3,3 0,1.7 1.3,3 3,3 H 20 v 6 H 82 V 14 Z"
       inkscape:connector-curvature="0"
       style="fill:#ffffff;fill-opacity:1;stroke:none;stroke-width:1;stroke-linecap:butt;stroke-dasharray:none;stroke-dashoffset:1" /><path
       id="path836-0"
       d="m 40,58 c 2.2,0 4,1.8 4,4 0,2.2 -1.8,4 -4,4 -2.2,0 -4,-1.8 -4,-4 0,-2.2 1.8,-4 4,-4 z m 0,12 c 4,0 7.4,-3 7.9,-7 0.5,-4 -2,-7.7 -5.9,-8.7 V 52 c 0,-1.1 0.9,-2 2,-2 h 14 c 3.3,0 6,-2.7 6,-6 V 32.8 l 2.6,2.6 c 0.8,0.8 2,0.8 2.8,0 0.8,-0.8 0.8,-2 0,-2.8 l -6,-6 C 63,26.2 62.5,26 62,26 c -0.5,0 -1,0.2 -1.4,0.6 l -6,6 c -0.8,0.8 -0.8,2 0,2.8 0.8,0.8 2,0.8 2.8,0 L 60,32.8 V 44 c 0,1.1 -0.9,2 -2,2 H 44 c -3.3,0 -6,2.7 -6,6 v 2.3 c -3.9,1 -6.4,4.8 -5.9,8.7 0.5,4 3.9,7 7.9,7 z"
       inkscape:connector-curvature="0"
       style="fill:#ffffff;fill-opacity:1;stroke:none;stroke-width:1;stroke-linecap:butt;stroke-dasharray:none;stroke-dashoffset:1" /><path
       id="path838-9"
       d="M 69.4,54.6 C 69,54.2 68.5,54 68,54 c -0.5,0 -1,0.2 -1.4,0.6 L 62,59.2 57.4,54.6 c -0.8,-0.8 -2,-0.8 -2.8,0 -0.8,0.8 -0.8,2 0,2.8 l 4.6,4.6 -4.6,4.6 c -0.8,0.8 -0.8,2 0,2.8 0.8,0.8 2,0.8 2.8,0 l 4.6,-4.6 4.6,4.6 c 0.8,0.8 2,0.8 2.8,0 0.8,-0.8 0.8,-2 0,-2.8 L 64.8,62 69.4,57.4 c 0.8,-0.8 0.8,-2 0,-2.8 z"
       inkscape:connector-curvature="0"
       style="fill:#ffffff;fill-opacity:1;stroke:none;stroke-width:1;stroke-linecap:butt;stroke-dasharray:none;stroke-dashoffset:1" /><path
       id="path840"
       d="m 32.6,41.4 c 0.4,0.4 0.9,0.6 1.4,0.6 0.5,0 1,-0.2 1.4,-0.6 l 4.6,-4.6 4.6,4.6 c 0.8,0.8 2,0.8 2.8,0 0.8,-0.8 0.8,-2 0,-2.8 L 42.8,34 47.4,29.4 c 0.8,-0.8 0.8,-2 0,-2.8 -0.8,-0.8 -2,-0.8 -2.8,0 L 40,31.2 35.4,26.6 c -0.8,-0.8 -2,-0.8 -2.8,0 -0.8,0.8 -0.8,2 0,2.8 l 4.6,4.6 -4.6,4.6 c -0.8,0.8 -0.8,2 0,2.8 z"
       inkscape:connector-curvature="0"
       style="fill:#ffffff;fill-opacity:1;stroke:none;stroke-width:1;stroke-linecap:butt;stroke-dasharray:none;stroke-dashoffset:1" /></g></svg>