<?xml version="1.0" encoding="UTF-8" standalone="no"?>
<svg
   xmlns:dc="http://purl.org/dc/elements/1.1/"
   xmlns:cc="http://creativecommons.org/ns#"
   xmlns:rdf="http://www.w3.org/1999/02/22-rdf-syntax-ns#"
   xmlns:svg="http://www.w3.org/2000/svg"
   xmlns="http://www.w3.org/2000/svg"
   xmlns:sodipodi="http://sodipodi.sourceforge.net/DTD/sodipodi-0.dtd"
   xmlns:inkscape="http://www.inkscape.org/namespaces/inkscape"
   version="1.1"
   viewBox="0 0 96 96"
   id="Icons"
   overflow="hidden"
   sodipodi:docname="RSE.svg"
   inkscape:version="0.92.2 (5c3e80d, 2017-08-06)">
  <metadata
     id="metadata9">
    <rdf:RDF>
      <cc:Work
         rdf:about="">
        <dc:format>image/svg+xml</dc:format>
        <dc:type
           rdf:resource="http://purl.org/dc/dcmitype/StillImage" />
        <dc:title></dc:title>
      </cc:Work>
    </rdf:RDF>
  </metadata>
  <defs
     id="defs7" />
  <sodipodi:namedview
     pagecolor="#ffffff"
     bordercolor="#666666"
     borderopacity="1"
     objecttolerance="10"
     gridtolerance="10"
     guidetolerance="10"
     inkscape:pageopacity="0"
     inkscape:pageshadow="2"
     inkscape:window-width="1920"
     inkscape:window-height="986"
     id="namedview5"
     showgrid="false"
     inkscape:zoom="3.4766084"
     inkscape:cx="-5.9587479"
     inkscape:cy="48.741188"
     inkscape:window-x="-11"
     inkscape:window-y="-11"
     inkscape:window-maximized="1"
     inkscape:current-layer="Icons" />
  <g
     style="overflow:hidden;opacity:0.98;fill:#ffffff;fill-opacity:1"
     id="g828"
     transform="matrix(1.1778806,0,0,1.1778806,-8.5382688,-8.5382688)">
    <g
       id="g816"
       style="fill:#ffffff;fill-opacity:1">
      <path
         id="path812"
         d="M 48,10 C 27,10 10,27 10,48 10,69 27,86 48,86 69,86 86,69 86,48 86,27 69,10 48,10 Z m 0,72 C 29.3,82 14,66.7 14,48 14,29.3 29.3,14 48,14 c 4.9,0 9.5,1 13.7,2.9 l -3.2,2.6 C 58.1,19.8 57.7,20 57.2,20 h -1.9 c -0.2,0 -0.5,0 -0.7,-0.1 0,0 -4.9,-2.9 -7.7,-2.9 -2.7,0 -7.1,1.7 -9,3 -2.9,1.9 0.2,2.8 0.9,3 0.1,0 0.2,0 0.2,0 h 2.8 c 0.7,0 1.3,-0.3 1.7,-0.9 l 1.1,-1.7 C 44.8,20.1 45.1,20 45.4,20 H 47 l -2.1,3.5 C 44.4,24.4 43.4,25 42.3,25 h -2.7 c -0.4,0 -0.8,0.1 -1.1,0.3 L 36,27 h -2 c -0.6,0 -1,0.4 -1,1 v 1 c 0,0.6 -0.4,1 -1,1 h -0.9 c -0.7,0 -1.3,0.3 -1.7,0.9 l -1.2,1.9 C 28.1,33 28,33.2 28,33.4 V 34 c 0,0.6 0.4,1 1,1 h 3.6 c 0.3,0 0.5,-0.1 0.7,-0.3 l 3.1,-3.1 C 36.8,31.2 37.3,31 37.8,31 h 0.4 c 0.5,0 0.9,0.3 1,0.8 l 0.6,2.5 c 0.1,0.4 0.5,0.8 1,0.8 H 41 c 0.6,0 1,-0.4 1,-1 v -2.6 c 0,-0.3 0.1,-0.5 0.3,-0.7 L 43,30 l 0.8,2.3 c 0.1,0.4 0.5,0.7 0.9,0.7 h 0.9 c 0.3,0 0.5,-0.1 0.7,-0.3 l 0.4,-0.4 C 46.9,32.1 47.1,32 47.4,32 H 48 c 0.6,0 1,0.4 1,1 v 1 c 0,0.6 0.4,1 1,1 h 3.6 c 0.7,0 1.2,0.7 0.9,1.3 l -0.3,0.9 C 54,37.7 53.6,38 53.1,37.9 l -4.8,-0.8 c -0.2,0 -0.5,0 -0.7,0 l -4.1,0.8 C 43.1,38 42.8,37.9 42.4,37.8 41.1,37.3 37.5,36 36,36 24.1,36 24,44 24,47 c 0,4 2.3,7 6,7 4.4,0 10,-0.2 10,8 v 6.2 c 0,1.2 0.4,2.3 1.2,3.2 l 2.9,3.5 c 0.6,0.7 1.4,1.1 2.3,1.1 h 2.4 c 0.8,0 1.6,-0.3 2.1,-0.9 l 2.4,-2.4 c 0.5,-0.5 0.8,-1 1.1,-1.6 l 2,-4.1 c 0.3,-0.7 0.5,-1.5 0.5,-2.2 v -4.6 c 0,-0.8 0.3,-1.6 0.9,-2.1 l 5.3,-5.3 c 0.4,-0.4 0.4,-1.2 -0.1,-1.5 0,0 -6,-3.4 -9.3,-9.8 C 53.4,40.8 53.8,40 54.6,40 H 55 l 5.7,7.4 c 0.7,0.9 2,1 2.9,0.3 l 3.3,-2.8 c 0.5,-0.4 0.5,-1.3 -0.1,-1.6 l -3,-1.8 C 63.4,41.2 63.2,40.7 63.4,40.2 L 63.5,40 c 0.3,-0.5 0.9,-0.7 1.4,-0.4 l 3.6,2.2 c 0.3,0.2 0.7,0.3 1,0.3 h 1.1 c 0.8,0 1.5,0.5 1.8,1.2 l 2.9,6.6 c 0.3,0.7 1,1.2 1.8,1.2 v 0 c 0.9,0 1.7,-0.8 1.7,-1.7 v -2.8 c 0,-0.3 0.1,-0.6 0.4,-0.8 L 81.5,44 c 0.2,1.3 0.3,2.7 0.3,4.1 C 82,66.7 66.7,82 48,82 Z"
         inkscape:connector-curvature="0"
         style="fill:#ffffff;fill-opacity:1;stroke:none;stroke-width:1;stroke-linecap:butt;stroke-dasharray:none;stroke-dashoffset:1" />
      <path
         id="path814"
         d="m 30,27 v 1 h 1 c 0.6,0 1,-0.4 1,-1 v -1 h 1 v -1.6 c 0,-0.3 -0.1,-0.5 -0.3,-0.7 l -1,-1 c -0.4,-0.4 -1,-0.4 -1.4,0 l -1.6,1.6 c -0.4,0.4 -0.4,1 0,1.4 z"
         inkscape:connector-curvature="0"
         style="fill:#ffffff;fill-opacity:1;stroke:none;stroke-width:1;stroke-linecap:butt;stroke-dasharray:none;stroke-dashoffset:1" />
    </g>
  </g>
</svg>
