<?xml version="1.0" encoding="UTF-8" standalone="no"?>
<svg
   xmlns:dc="http://purl.org/dc/elements/1.1/"
   xmlns:cc="http://creativecommons.org/ns#"
   xmlns:rdf="http://www.w3.org/1999/02/22-rdf-syntax-ns#"
   xmlns:svg="http://www.w3.org/2000/svg"
   xmlns="http://www.w3.org/2000/svg"
   xmlns:sodipodi="http://sodipodi.sourceforge.net/DTD/sodipodi-0.dtd"
   xmlns:inkscape="http://www.inkscape.org/namespaces/inkscape"
   version="1.1"
   viewBox="0 0 96 96"
   id="Icons"
   overflow="hidden"
   sodipodi:docname="service-white.svg"
   inkscape:version="0.92.2 (5c3e80d, 2017-08-06)">
  <metadata
     id="metadata9">
    <rdf:RDF>
      <cc:Work
         rdf:about="">
        <dc:format>image/svg+xml</dc:format>
        <dc:type
           rdf:resource="http://purl.org/dc/dcmitype/StillImage" />
        <dc:title></dc:title>
      </cc:Work>
    </rdf:RDF>
  </metadata>
  <defs
     id="defs7" />
  <sodipodi:namedview
     pagecolor="#ffffff"
     bordercolor="#666666"
     borderopacity="1"
     objecttolerance="10"
     gridtolerance="10"
     guidetolerance="10"
     inkscape:pageopacity="0"
     inkscape:pageshadow="2"
     inkscape:window-width="1920"
     inkscape:window-height="986"
     id="namedview5"
     showgrid="false"
     inkscape:zoom="4.9166667"
     inkscape:cx="34.396984"
     inkscape:cy="37.952913"
     inkscape:window-x="-11"
     inkscape:window-y="-11"
     inkscape:window-maximized="1"
     inkscape:current-layer="Icons" />
  <path
     inkscape:connector-curvature="0"
     id="path839"
     d="m 42.6987,76.537049 c -1.438947,-0.312953 -2.253095,-0.902583 -2.786281,-2.017906 -0.325656,-0.681209 -0.435312,-0.806627 -0.735216,-0.840888 -0.269263,-0.03076 -0.457251,0.06201 -0.796281,0.392946 -1.506647,1.470688 -5.124487,0.196743 -6.216763,-2.189103 -0.314225,-0.686356 -0.822181,-1.164943 -1.236434,-1.164943 -0.128593,0 -0.391313,0.164403 -0.583822,0.36534 -0.53263,0.555945 -1.261472,0.786586 -2.206736,0.698315 -1.927777,-0.180018 -3.569568,-1.596328 -3.927204,-3.387846 -0.159303,-0.797995 -0.406527,-0.923246 -0.858892,-0.435137 -0.272099,0.293601 -0.35466,0.315892 -0.881155,0.237917 -2.767333,-0.409855 -4.764221,-2.851159 -4.38742,-5.363858 0.0669,-0.446141 0.193272,-0.662867 0.628196,-1.077377 0.299445,-0.28539 0.544446,-0.595716 0.544446,-0.689616 0,-0.213268 -0.317248,-0.62115 -1.197428,-1.53952 L 17.36993,58.80775 9.3084325,58.89849 1.2469366,58.98923 V 44.027378 29.065533 h 9.1380314 9.138029 l 0.999239,-0.934077 c 2.694662,-2.518935 4.956926,-3.728108 9.030985,-4.827031 1.040128,-0.28056 2.855866,-0.78224 4.034975,-1.114843 2.982898,-0.841417 4.157982,-1.011122 6.429218,-0.928501 2.0063,0.07298 3.19429,0.30574 4.902474,0.960511 0.539021,0.206614 1.21635,0.466628 1.505176,0.577809 0.512076,0.197118 0.537975,0.194865 1.04129,-0.09059 1.895163,-1.074854 5.192663,-2.640751 6.370072,-3.024981 1.360978,-0.444136 1.38248,-0.446936 2.292649,-0.29869 4.337186,0.706438 12.610881,4.623777 20.387837,9.653012 l 1.215841,0.786265 8.58454,-0.04255 8.584542,-0.04255 0.03112,14.679936 c 0.01984,9.358541 -0.01212,14.754027 -0.08815,14.884329 -0.0845,0.144805 -0.120362,0.155377 -0.123001,0.03626 -0.0027,-0.122547 -0.04619,-0.132887 -0.16036,-0.03814 -0.109877,0.09119 -2.331457,0.09693 -7.442165,0.01924 -4.007042,-0.06091 -7.942462,-0.112661 -8.745379,-0.114995 l -1.45985,-0.0042 -1.419012,1.487101 c -0.780457,0.817906 -1.808536,1.805442 -2.284617,2.194525 -0.665766,0.544102 -0.899437,0.820344 -1.012148,1.196542 -0.0806,0.269015 -0.386181,0.814642 -0.67907,1.212503 -0.872926,1.185787 -2.247116,2.04146 -3.813426,2.374522 -0.606464,0.12896 -0.863594,0.270874 -1.470058,0.811352 -0.404265,0.360278 -1.145715,0.859819 -1.647666,1.110089 l -0.912637,0.455038 -1.658229,0.01062 -1.658231,0.01062 -0.346148,0.479396 c -1.156292,1.601403 -2.644439,2.428397 -4.652518,2.585502 -0.857583,0.06709 -1.033468,0.127676 -1.764293,0.607684 -1.283096,0.84274 -1.420055,0.859953 -4.63345,0.582321 -0.967275,-0.08357 -0.832254,-0.153652 -2.680798,1.391446 -0.739245,0.617896 -1.04217,0.790933 -1.55485,0.88816 -0.796712,0.151094 -1.089169,0.142141 -2.028198,-0.06209 z m 10.194035,-3.313418 c 0.331368,-0.204812 0.667361,-0.508011 0.746649,-0.673776 0.07929,-0.165765 0.183668,-1.22477 0.231952,-2.353345 0.08576,-2.004597 0.08209,-2.051955 -0.159125,-2.051955 -0.164085,0 -0.657543,0.48286 -1.471024,1.439431 -0.67326,0.791687 -1.619524,1.880258 -2.102806,2.419047 -1.29437,1.443026 -1.156515,1.657188 1.039287,1.614576 1.005902,-0.01952 1.170348,-0.0573 1.715067,-0.393978 z m 3.882739,-1.21206 c 1.05732,-0.373149 1.941982,-1.046184 2.53016,-1.924899 l 0.463023,-0.691737 0.06682,-5.739763 c 0.05527,-4.747424 0.03768,-5.785892 -0.101761,-6.006569 -0.09272,-0.146741 -2.210175,-2.127477 -4.705451,-4.401635 -3.945276,-3.595667 -4.553625,-4.197067 -4.665381,-4.612099 -0.189295,-0.702986 -0.109567,-1.124301 0.221661,-1.171359 0.284941,-0.04048 0.429512,0.175362 0.575121,0.858659 0.05051,0.237008 1.395571,1.539267 4.786164,4.63385 l 4.715917,4.304199 v 5.855935 c 0,4.77165 0.03068,5.881393 0.165668,5.993427 0.09112,0.07562 0.491636,0.171563 0.890042,0.213205 1.342822,0.140353 3.006628,-0.499521 4.033637,-1.551273 l 0.432144,-0.442556 -0.187301,-2.195426 c -0.232524,-2.725501 -0.431131,-7.587306 -0.432764,-10.593831 -0.0012,-2.165225 -0.01432,-2.290706 -0.276871,-2.642605 -0.67485,-0.904518 -2.266008,-2.528697 -5.99467,-6.119074 l -4.003967,-3.855474 -0.138889,-0.669019 c -0.157919,-0.760696 -0.105751,-0.917555 0.305165,-0.917555 0.242199,0 0.327488,0.109873 0.513415,0.661412 0.206219,0.61173 0.462214,0.891053 3.408091,3.718668 3.415895,3.278764 6.03156,5.925101 6.612447,6.689985 l 0.359524,0.473403 0.0894,4.671798 c 0.11896,6.216307 0.369585,10.007706 0.678495,10.264078 0.13584,0.112737 0.329406,0.09703 0.872531,-0.07081 1.705546,-0.527061 3.074064,-1.752235 3.443192,-3.082537 0.158783,-0.572236 0.465581,-5.738766 0.574028,-9.666711 0.111406,-4.035141 -0.135935,-5.713161 -1.019146,-6.914144 -0.192423,-0.261654 -2.279576,-2.451403 -4.638119,-4.86611 -2.358541,-2.414707 -4.671672,-4.806435 -5.140287,-5.314952 -0.468615,-0.508518 -1.414018,-1.534196 -2.100896,-2.279284 -0.686879,-0.745088 -1.403532,-1.416758 -1.592563,-1.492597 -0.638694,-0.256244 -6.267913,-1.611481 -6.430334,-1.548106 -0.08861,0.03457 -0.381435,0.544147 -0.650732,1.132384 -1.936696,4.230417 -5.076967,8.314819 -7.680283,9.989384 -1.828549,1.176201 -3.179363,1.551104 -4.708568,1.306813 -1.956001,-0.312472 -2.677432,-1.028574 -2.650961,-2.631379 0.01854,-1.122536 0.383361,-2.338265 2.205724,-7.350287 0.808448,-2.223461 1.676659,-4.676619 1.929357,-5.451462 0.252699,-0.774843 0.524581,-1.47855 0.604182,-1.563794 0.0796,-0.08524 1.223356,-0.774333 2.541675,-1.53131 3.040755,-1.745995 3.013826,-1.727187 2.854158,-1.993449 -0.272555,-0.45451 -2.847599,-1.206954 -4.846896,-1.416292 -1.61569,-0.169173 -3.34989,-0.0044 -5.299115,0.503405 -2.878861,0.750032 -6.428372,1.733489 -7.368036,2.04145 -2.71646,0.890279 -4.81667,2.136547 -6.786174,4.026924 l -1.187409,1.139705 -8.937461,0.101082 -8.9374625,0.101084 -0.07529,1.960076 c -0.124266,3.235163 -0.116764,25.829461 0.0086,26.02773 0.09665,0.152803 0.77813,0.175287 4.622679,0.152522 2.480126,-0.01469 5.9717635,-0.06145 7.7591915,-0.103927 l 3.249871,-0.07722 1.083508,1.180377 c 0.595929,0.649208 1.160012,1.180378 1.253517,1.180378 0.09351,0 1.197451,-0.943771 2.453214,-2.097267 l 2.283206,-2.097269 0.945515,0.05474 c 1.083347,0.06271 1.773633,0.388849 2.44752,1.156365 0.496888,0.565924 0.977326,1.576654 0.981406,2.064649 0.0038,0.459531 0.156574,0.710703 0.398415,0.655203 0.222216,-0.051 3.098297,-3.112164 4.910666,-5.226687 1.434275,-1.673394 1.666046,-1.884837 2.442532,-2.228314 1.272128,-0.562723 2.883837,-0.38478 4.108369,0.45359 0.875694,0.59954 1.43345,1.441252 1.668494,2.517934 0.105272,0.482229 0.445085,0.427483 0.905907,-0.145947 0.213409,-0.26556 0.388016,-0.53302 0.388016,-0.594356 0,-0.06133 -0.164283,-0.283427 -0.365076,-0.493536 -0.404007,-0.422754 -0.382594,-0.756864 0.04851,-0.756864 0.148357,0 0.37675,0.08094 0.507538,0.179862 0.374107,0.282959 0.640627,0.221757 1.119447,-0.257062 0.701314,-0.701314 1.645948,-1.078341 2.670989,-1.066056 1.301122,0.01559 2.14438,0.386119 3.133979,1.377063 1.46477,1.46676 1.602815,2.91923 0.424301,4.464342 -0.609188,0.798687 -0.372266,1.058609 0.968272,1.062266 0.703126,0.0019 1.133493,0.06958 1.499496,0.235747 0.714405,0.324342 1.591694,1.167579 1.977225,1.900477 0.281512,0.53516 0.32483,0.764371 0.325045,1.719986 2.45e-4,1.226129 -0.180258,1.713774 -1.015808,2.743797 l -0.437,0.538711 -0.09226,2.095141 c -0.103721,2.355586 -0.132435,3.221615 -0.117188,3.534573 0.01564,0.321063 1.100932,0.278321 2.1269,-0.08376 z M 1.0612906,44.011115 c 0,-8.388514 0.01462,-11.820179 0.0325,-7.625922 0.01787,4.194257 0.01787,11.057587 0,15.251844 -0.01787,4.194257 -0.0325,0.762592 -0.0325,-7.625922 z"
     style="fill:#ffffff;fill-opacity:1;stroke-width:0.12250477" />
</svg>
